<?xml version="1.0" encoding="UTF-8"?>
<svg version="1.1" xmlns="http://www.w3.org/2000/svg" width="213" height="256">
<path d="M0 0 C70.29 0 140.58 0 213 0 C213 84.48 213 168.96 213 256 C142.71 256 72.42 256 0 256 C0 171.52 0 87.04 0 0 Z " fill="#FDFEFE" transform="translate(0,0)"/>
<path d="M0 0 C70.29 0 140.58 0 213 0 C213 28.05 213 56.1 213 85 C199.635 85.495 199.635 85.495 186 86 C184.42285103 90.73144692 183.35016406 95.11301851 182.5625 99.98828125 C182.30490753 101.51370905 182.04708855 103.03909861 181.7890625 104.56445312 C181.39089927 106.95170351 180.99560056 109.33936648 180.60449219 111.7277832 C180.22311717 114.04513324 179.83100823 116.3604655 179.4375 118.67578125 C179.322854 119.39550613 179.20820801 120.11523102 179.09008789 120.85676575 C178.79357735 122.58399486 178.40520274 124.29499277 178 126 C177.01 126.495 177.01 126.495 176 127 C175.38125 126.01773438 175.38125 126.01773438 174.75 125.015625 C170.98949057 119.07267706 167.22214106 113.14330171 163.140625 107.4140625 C161.41603094 104.86432603 160.28846861 102.32622622 159.171875 99.4609375 C156.94688956 94.357117 154.91429249 89.93923532 150 87 C139.52146491 84.82584858 128.56617279 86.04511256 118 87 C117.01 91.29 116.02 95.58 115 100 C109.06 100.33 103.12 100.66 97 101 C94.78363697 106.17151373 93.42765279 109.89681999 92.39453125 115.24609375 C92.26559982 115.90207047 92.1366684 116.55804718 92.00382996 117.23390198 C91.59938123 119.30042146 91.20576292 121.36882598 90.8125 123.4375 C90.53782738 124.85105117 90.26244302 126.26446423 89.98632812 127.67773438 C89.31599508 131.11693398 88.65534856 134.5579097 88 138 C87.67 138 87.34 138 87 138 C86.97312721 136.18757948 86.95366285 134.37504767 86.9375 132.5625 C86.92589844 131.55316406 86.91429688 130.54382813 86.90234375 129.50390625 C87 127 87 127 88 126 C88.36760731 123.67182036 88.70241581 121.3381615 89 119 C88.34 119 87.68 119 87 119 C87 118.34 87 117.68 87 117 C86.34 117 85.68 117 85 117 C84.90234375 110.84765625 84.90234375 110.84765625 85 109 C85.33 108.67 85.66 108.34 86 108 C86.20837419 106.17093765 86.36749659 104.33611866 86.5 102.5 C86.88888889 97.11111111 86.88888889 97.11111111 88 96 C88.07244053 93.98035801 88.08377188 91.95832876 88.0625 89.9375 C88.05347656 88.83277344 88.04445313 87.72804688 88.03515625 86.58984375 C88.02355469 85.73519531 88.01195313 84.88054687 88 84 C87.236875 84.165 86.47375 84.33 85.6875 84.5 C82.61736807 84.91628908 79.89310876 85.03530784 76.8125 85 C75.86632812 85.00128906 74.92015625 85.00257812 73.9453125 85.00390625 C71.98148074 85.0013017 70.01744241 84.96742183 68.0546875 84.90234375 C62.51622853 84.92238326 62.51622853 84.92238326 58.08862305 87.90771484 C56.55328023 90.21108563 55.25340432 92.53377879 54 95 C50.00275808 100.86502764 45.83613448 106.6003384 41.625 112.3125 C38.21941986 116.93233885 34.87497985 121.5809117 31.625 126.3125 C24.87967018 136.12936394 17.87622836 145.76835373 10.79296875 155.34375 C10.29007324 156.02453613 9.78717773 156.70532227 9.26904297 157.40673828 C8.32436078 158.68331015 7.37693117 159.95785523 6.42626953 161.22998047 C4.33717154 164.05125757 2.41975766 166.77976754 1 170 C-0.44583483 167.10833034 -0.12266289 164.61360498 -0.12025452 161.38156128 C-0.12111053 160.69547791 -0.12196655 160.00939453 -0.12284851 159.30252075 C-0.12450997 156.98534589 -0.11896994 154.66824253 -0.11352539 152.35107422 C-0.11321921 150.66876287 -0.11335228 148.98645139 -0.11389065 147.30414009 C-0.11411697 142.78757281 -0.10830936 138.27103187 -0.10128021 133.75447083 C-0.09559707 129.52063918 -0.09531774 125.28681404 -0.09460449 121.05297852 C-0.08935132 108.6603155 -0.07539024 96.26765742 -0.0625 83.875 C-0.041875 56.19625 -0.02125 28.5175 0 0 Z " fill="#FEFEFE" transform="translate(0,0)"/>
<path d="M0 0 C1.25069801 2.50139602 1.13302467 4.27392691 1.125 7.0625 C1.12886719 8.41021484 1.12886719 8.41021484 1.1328125 9.78515625 C1 12 1 12 0 13 C-0.20837419 14.82906235 -0.36749659 16.66388134 -0.5 18.5 C-0.88888889 23.88888889 -0.88888889 23.88888889 -2 25 C-2.23075082 26.34747084 -2.41153063 27.70377565 -2.5625 29.0625 C-2.706875 30.361875 -2.85125 31.66125 -3 33 C-2.34 33 -1.68 33 -1 33 C-1 33.66 -1 34.32 -1 35 C-0.34 35 0.32 35 1 35 C1.04241723 37.33294775 1.04092937 39.66702567 1 42 C0.67 42.33 0.34 42.66 0 43 C-0.04080783 44.99958364 -0.04254356 47.00045254 0 49 C0.16604736 48.14245117 0.33209473 47.28490234 0.50317383 46.40136719 C1.12654773 43.20903548 1.75940689 40.01877222 2.39868164 36.82958984 C2.67298623 35.45110816 2.94353993 34.07187441 3.21020508 32.69189453 C3.59504026 30.70393777 3.99345815 28.71911118 4.39453125 26.734375 C4.63018799 25.54038086 4.86584473 24.34638672 5.10864258 23.11621094 C5.99507981 20.01720113 6.68572218 18.23007288 9 16 C10.99291992 15.54589844 10.99291992 15.54589844 13.23046875 15.609375 C14.43413086 15.62871094 14.43413086 15.62871094 15.66210938 15.6484375 C16.91217773 15.69871094 16.91217773 15.69871094 18.1875 15.75 C19.03248047 15.76804687 19.87746094 15.78609375 20.74804688 15.8046875 C22.83251573 15.85179414 24.91640144 15.92353767 27 16 C27.185625 14.205625 27.185625 14.205625 27.375 12.375 C27.75387708 8.71252153 28.77735754 5.46912372 30 2 C57.52401652 -0.35775049 57.52401652 -0.35775049 64.3359375 3.23046875 C67.74972795 6.47597376 69.42353156 10.52255563 71.09130859 14.86132812 C72.6351028 18.49476102 74.9288454 21.59331137 77.1875 24.8125 C77.95423033 25.96324334 78.71858046 27.11557636 79.48046875 28.26953125 C82.57935017 32.89773078 85.79391639 37.44574071 89 42 C89.20157715 40.82904785 89.4031543 39.6580957 89.61083984 38.45166016 C90.3594753 34.11543955 91.11856542 29.78110416 91.88085938 25.44726562 C92.20957205 23.56983554 92.53543165 21.69190362 92.85839844 19.81347656 C93.32261341 17.11647298 93.79699572 14.42142943 94.2734375 11.7265625 C94.41623138 10.88380768 94.55902527 10.04105286 94.70614624 9.17276001 C95.77225659 3.22774341 95.77225659 3.22774341 98 1 C100.30664062 0.74121094 100.30664062 0.74121094 103.15625 0.734375 C104.68958984 0.73050781 104.68958984 0.73050781 106.25390625 0.7265625 C107.32511719 0.73429687 108.39632812 0.74203125 109.5 0.75 C110.57121094 0.74226563 111.64242187 0.73453125 112.74609375 0.7265625 C113.76832031 0.72914062 114.79054687 0.73171875 115.84375 0.734375 C116.78412109 0.73663086 117.72449219 0.73888672 118.69335938 0.74121094 C121 1 121 1 123 3 C123.02764893 4.87182617 123.02764893 4.87182617 122.71582031 7.10546875 C122.60580688 7.91290527 122.49579346 8.7203418 122.38244629 9.55224609 C121.82035738 13.14975862 121.21700961 16.73349274 120.546875 20.3125 C120.40640747 21.0760379 120.26593994 21.83957581 120.12121582 22.62625122 C119.66768309 25.08483832 119.20918391 27.54246258 118.75 30 C118.43324291 31.7055617 118.11651133 33.41112815 117.79980469 35.11669922 C115.99749786 44.79538371 114.16507695 54.4679295 112.25 64.125 C111.9710791 65.54039062 111.9710791 65.54039062 111.68652344 66.984375 C107.82140491 86.17859509 107.82140491 86.17859509 106 88 C103.26231024 88.34445768 100.6239656 88.55648743 97.875 88.6875 C97.12734375 88.76677734 96.3796875 88.84605469 95.609375 88.92773438 C93.09294815 89.02199078 91.36589645 88.88592033 89 88 C86.06363304 85.03492879 84.10745466 81.58135987 82 78 C80.74492868 76.08590966 79.48176937 74.17710034 78.2109375 72.2734375 C76.93054578 70.30842817 75.65191078 68.34227311 74.375 66.375 C73.73304688 65.39015625 73.09109375 64.4053125 72.4296875 63.390625 C68.89674585 57.96089911 65.41329062 52.50572931 62 47 C60.43145722 53.41444732 59.01680981 59.84239468 57.7578125 66.32421875 C57.54020264 67.44127197 57.32259277 68.5583252 57.09838867 69.70922852 C56.66040713 71.97291518 56.22820512 74.2377283 55.80200195 76.50366211 C55.49588989 78.08352905 55.49588989 78.08352905 55.18359375 79.6953125 C54.91373657 81.1186792 54.91373657 81.1186792 54.63842773 82.57080078 C54 85 54 85 52 88 C48.99485779 88.36749268 48.99485779 88.36749268 45.08764648 88.35644531 C44.02160187 88.35951187 44.02160187 88.35951187 42.934021 88.36264038 C40.57945217 88.36565424 38.22557959 88.34715551 35.87109375 88.328125 C34.23967157 88.3250686 32.60824678 88.32319157 30.9768219 88.32244873 C27.55614249 88.31784204 24.13569803 88.30340125 20.71508789 88.28125 C16.32087817 88.25294493 11.92685352 88.24203676 7.5325613 88.2375679 C4.1637841 88.23341992 0.79504467 88.22360803 -2.5737133 88.21169281 C-4.19450514 88.2059786 -5.81530064 88.20122373 -7.4360981 88.19742584 C-9.69647802 88.19058413 -11.95670845 88.17696246 -14.21704102 88.16113281 C-15.50562515 88.15430481 -16.79420929 88.14747681 -18.12184143 88.14044189 C-21 88 -21 88 -22 87 C-21.96094829 76.85816539 -19.81745768 66.95265376 -17.8125 57.0625 C-17.49990354 55.49199442 -17.18798311 53.92135414 -16.87670898 52.35058594 C-16.08254803 48.35202719 -15.27962392 44.35528426 -14.47436523 40.35894775 C-13.71187521 36.56719825 -12.95769972 32.77379986 -12.203125 28.98046875 C-10.81039939 21.98530273 -9.40856639 14.99199532 -8 8 C-13.46260601 7.25669289 -18.81343552 6.82411551 -24 9 C-28.99567487 13.29261784 -32.28576848 19.21786404 -35.65576172 24.80322266 C-37.31080669 27.50792564 -39.15251123 30.03284341 -41.0625 32.5625 C-44.36287155 37.09011055 -47.58983295 41.66701374 -50.8125 46.25 C-58.00211637 56.46916018 -65.29502286 66.62713917 -72.9765625 76.484375 C-74.1985587 78.14762926 -74.1985587 78.14762926 -75 81 C-70.42990394 81.37248432 -66.43249969 81.23560832 -62 80 C-57.89616159 76.50497279 -55.06281149 72.38234149 -52 68 C-50.64911983 66.47624669 -49.29532445 64.9550685 -47.9375 63.4375 C-44.60086909 59.19719822 -44.52079494 55.72455386 -44.34375 50.46484375 C-43.95796342 47.69857859 -43.45295152 46.70466593 -41.4375 44.8125 C-36.96869108 42.45621893 -34.99603479 42.28628074 -30 43 C-27.1899654 44.79363911 -25.49059532 46.01880935 -24 49 C-23.62406848 53.98109259 -23.8234839 57.05673864 -27 61 C-30.06349424 63.4678148 -31.36515127 64.05581906 -35.33203125 63.70703125 C-39.16510895 63.64278493 -39.16510895 63.64278493 -41.80859375 66.4921875 C-42.70643428 67.6027184 -43.58197652 68.7315508 -44.4375 69.875 C-44.90269043 70.46055664 -45.36788086 71.04611328 -45.84716797 71.64941406 C-46.79338886 72.84412757 -47.7306553 74.04598939 -48.65869141 75.25488281 C-50.60515633 77.78734209 -52.61879914 80.26476015 -54.625 82.75 C-55.25664063 83.54921875 -55.88828125 84.3484375 -56.5390625 85.171875 C-58 87 -58 87 -59 88 C-63.13962283 88.25301239 -67.29105996 88.18522549 -71.4375 88.1875 C-72.60861328 88.19974609 -73.77972656 88.21199219 -74.98632812 88.22460938 C-76.10330078 88.22654297 -77.22027344 88.22847656 -78.37109375 88.23046875 C-79.40161865 88.23457764 -80.43214355 88.23868652 -81.49389648 88.24291992 C-84 88 -84 88 -86 86 C-85.77602799 81.41657289 -83.41411759 78.35507302 -80.75 74.8125 C-79.8424068 73.57424888 -78.93485694 72.335966 -78.02734375 71.09765625 C-77.53991699 70.43910645 -77.05249023 69.78055664 -76.55029297 69.10205078 C-73.77515507 65.33922601 -71.04756559 61.54199282 -68.3125 57.75 C-67.75159668 56.97462891 -67.19069336 56.19925781 -66.61279297 55.40039062 C-63.29566447 50.81243334 -60.02756344 46.1949798 -56.80078125 41.54296875 C-54.434896 38.2019898 -51.99603238 34.91686973 -49.5625 31.625 C-45.46186339 26.07375534 -41.57247566 20.43447523 -37.78515625 14.6640625 C-35.70637542 11.56181189 -33.5040867 8.57933049 -31.2265625 5.62109375 C-30.09300616 4.12292215 -29.04210853 2.5631628 -28 1 C-25.84863281 0.56762695 -25.84863281 0.56762695 -23.203125 0.48828125 C-21.76453125 0.43510742 -21.76453125 0.43510742 -20.296875 0.38085938 C-19.29140625 0.35830078 -18.2859375 0.33574219 -17.25 0.3125 C-15.765 0.26125977 -15.765 0.26125977 -14.25 0.20898438 C-9.49936722 0.0533821 -4.75350196 -0.04042093 0 0 Z " fill="#F8FCF8" transform="translate(88,84)"/>
<path d="M0 0 C2.58203125 -0.37231445 2.58203125 -0.37231445 5.8125 -0.36328125 C7.54886719 -0.36231445 7.54886719 -0.36231445 9.3203125 -0.36132812 C10.53460938 -0.34521484 11.74890625 -0.32910156 13 -0.3125 C14.21429688 -0.31572266 15.42859375 -0.31894531 16.6796875 -0.32226562 C25.73318452 -0.26681548 25.73318452 -0.26681548 28 2 C27.58387629 8.51235593 26.35072767 14.8469824 25.07421875 21.23828125 C24.88535599 22.19913132 24.69649323 23.15998138 24.50190735 24.14994812 C23.90056337 27.20482623 23.29410246 30.25866222 22.6875 33.3125 C22.29198453 35.31829371 21.89679976 37.32415265 21.50195312 39.33007812 C20.53154762 44.25460864 19.55480591 49.17785511 18.57562256 54.10064697 C17.99780028 57.01107979 17.42366167 59.92222141 16.85009766 62.83349609 C16.48999148 64.65333667 16.1298064 66.47316162 15.76953125 68.29296875 C15.60523117 69.13032059 15.44093109 69.96767242 15.27165222 70.83039856 C14.65041973 73.95724494 14.0092858 76.97214259 13 80 C33.79 80 54.58 80 76 80 C76.33 77.03 76.66 74.06 77 71 C77.4128211 68.27989137 77.84062445 65.57036843 78.3046875 62.859375 C78.49165695 61.76426605 78.49165695 61.76426605 78.68240356 60.64703369 C78.94469305 59.12085577 79.20861244 57.59495711 79.47412109 56.06933594 C79.74247294 54.51675216 80.00610896 52.96334626 80.26513672 51.40917969 C80.64321359 49.14071845 81.03487095 46.87497541 81.4296875 44.609375 C81.54230927 43.91970642 81.65493103 43.23003784 81.77096558 42.51947021 C82.50170098 38.44034559 83.63959821 35.40864711 86 32 C88.48343935 32.37406369 89.71209369 32.688259 91.44116211 34.56047058 C91.88210205 35.23298355 92.32304199 35.90549652 92.77734375 36.59838867 C93.53833374 37.74044014 93.53833374 37.74044014 94.31469727 38.90556335 C94.85022217 39.73465714 95.38574707 40.56375092 95.9375 41.41796875 C96.49945068 42.26796951 97.06140137 43.11797028 97.64038086 43.99372864 C99.43786756 46.71796251 101.21906493 49.45242391 103 52.1875 C104.19945656 54.01176791 105.39996545 55.83534438 106.6015625 57.65820312 C109.29853733 61.75340734 111.98618114 65.85450287 114.66064453 69.96444702 C115.87376047 71.80814111 117.11863205 73.62560345 118.37109375 75.44262695 C120 78 120 78 120 80 C123.3 80 126.6 80 130 80 C129.97276855 79.00049316 129.94553711 78.00098633 129.91748047 76.97119141 C130.00074785 72.96401039 130.54173625 69.38923096 131.3203125 65.4609375 C131.45959671 64.7494455 131.59888092 64.03795349 131.74238586 63.30490112 C132.19673713 60.99359041 132.66064847 58.68432047 133.125 56.375 C133.44192978 54.77450155 133.75841287 53.17391459 134.07446289 51.57324219 C136.95585522 37.02972294 139.9529768 22.50963427 143 8 C138.71 8 134.42 8 130 8 C129.8453125 10.21203125 129.8453125 10.21203125 129.6875 12.46875 C129.04671552 19.50835412 127.75012229 26.40398534 126.41601562 33.33691406 C125.99556897 35.52303927 125.5831361 37.71056745 125.171875 39.8984375 C123.15530309 50.53409072 123.15530309 50.53409072 122 54 C119.525 54.495 119.525 54.495 117 55 C110.75507128 45.98945999 104.5856884 36.93147643 98.5 27.8125 C97.601604 26.46828979 97.601604 26.46828979 96.68505859 25.09692383 C96.11867676 24.24638428 95.55229492 23.39584473 94.96875 22.51953125 C94.46794922 21.76776611 93.96714844 21.01600098 93.45117188 20.24145508 C89 13.36625168 89 13.36625168 89 11 C89.66 10.67 90.32 10.34 91 10 C91.65555119 7.47266765 91.65555119 7.47266765 92 5 C95.13746266 8.79647308 97.92180311 12.76441585 100.625 16.875 C101.50127469 18.19793481 102.37757766 19.52085089 103.25390625 20.84375 C103.92703857 21.86275391 103.92703857 21.86275391 104.61376953 22.90234375 C106.92355348 26.39752933 109.24232474 29.88670736 111.5625 33.375 C111.99191895 34.0232373 112.42133789 34.67147461 112.86376953 35.33935547 C114.74813039 38.31412409 114.74813039 38.31412409 117 41 C117.20157715 39.82904785 117.4031543 38.6580957 117.61083984 37.45166016 C118.3594753 33.11543955 119.11856542 28.78110416 119.88085938 24.44726562 C120.20957205 22.56983554 120.53543165 20.69190362 120.85839844 18.81347656 C121.32261341 16.11647298 121.79699572 13.42142943 122.2734375 10.7265625 C122.41623138 9.88380768 122.55902527 9.04105286 122.70614624 8.17276001 C123.77225659 2.22774341 123.77225659 2.22774341 126 0 C128.30664062 -0.25878906 128.30664062 -0.25878906 131.15625 -0.265625 C132.68958984 -0.26949219 132.68958984 -0.26949219 134.25390625 -0.2734375 C135.32511719 -0.26570313 136.39632812 -0.25796875 137.5 -0.25 C138.57121094 -0.25773437 139.64242187 -0.26546875 140.74609375 -0.2734375 C141.76832031 -0.27085938 142.79054687 -0.26828125 143.84375 -0.265625 C144.78412109 -0.26336914 145.72449219 -0.26111328 146.69335938 -0.25878906 C149 0 149 0 151 2 C151.02764893 3.87182617 151.02764893 3.87182617 150.71582031 6.10546875 C150.60580688 6.91290527 150.49579346 7.7203418 150.38244629 8.55224609 C149.82035738 12.14975862 149.21700961 15.73349274 148.546875 19.3125 C148.40640747 20.0760379 148.26593994 20.83957581 148.12121582 21.62625122 C147.66768309 24.08483832 147.20918391 26.54246258 146.75 29 C146.43324291 30.7055617 146.11651133 32.41112815 145.79980469 34.11669922 C143.99749786 43.79538371 142.16507695 53.4679295 140.25 63.125 C139.9710791 64.54039062 139.9710791 64.54039062 139.68652344 65.984375 C135.82140491 85.17859509 135.82140491 85.17859509 134 87 C131.26231024 87.34445768 128.6239656 87.55648743 125.875 87.6875 C125.12734375 87.76677734 124.3796875 87.84605469 123.609375 87.92773438 C121.09294815 88.02199078 119.36589645 87.88592033 117 87 C114.06363304 84.03492879 112.10745466 80.58135987 110 77 C108.74492868 75.08590966 107.48176937 73.17710034 106.2109375 71.2734375 C104.93054578 69.30842817 103.65191078 67.34227311 102.375 65.375 C101.73304688 64.39015625 101.09109375 63.4053125 100.4296875 62.390625 C96.89674585 56.96089911 93.41329062 51.50572931 90 46 C88.43145722 52.41444732 87.01680981 58.84239468 85.7578125 65.32421875 C85.54020264 66.44127197 85.32259277 67.5583252 85.09838867 68.70922852 C84.66040713 70.97291518 84.22820512 73.2377283 83.80200195 75.50366211 C83.49588989 77.08352905 83.49588989 77.08352905 83.18359375 78.6953125 C82.91373657 80.1186792 82.91373657 80.1186792 82.63842773 81.57080078 C82 84 82 84 80 87 C76.99485779 87.36749268 76.99485779 87.36749268 73.08764648 87.35644531 C72.02160187 87.35951187 72.02160187 87.35951187 70.934021 87.36264038 C68.57945217 87.36565424 66.22557959 87.34715551 63.87109375 87.328125 C62.23967157 87.3250686 60.60824678 87.32319157 58.9768219 87.32244873 C55.55614249 87.31784204 52.13569803 87.30340125 48.71508789 87.28125 C44.32087817 87.25294493 39.92685352 87.24203676 35.5325613 87.2375679 C32.1637841 87.23341992 28.79504467 87.22360803 25.4262867 87.21169281 C23.80549486 87.2059786 22.18469936 87.20122373 20.5639019 87.19742584 C18.30352198 87.19058413 16.04329155 87.17696246 13.78295898 87.16113281 C12.49437485 87.15430481 11.20579071 87.14747681 9.87815857 87.14044189 C7 87 7 87 6 86 C6.03905171 75.85816539 8.18254232 65.95265376 10.1875 56.0625 C10.50009646 54.49199442 10.81201689 52.92135414 11.12329102 51.35058594 C11.91745197 47.35202719 12.72037608 43.35528426 13.52563477 39.35894775 C14.28812479 35.56719825 15.04230028 31.77379986 15.796875 27.98046875 C17.18960061 20.98530273 18.59143361 13.99199532 20 7 C14.53739399 6.25669289 9.18656448 5.82411551 4 8 C-0.99567487 12.29261784 -4.28576848 18.21786404 -7.65576172 23.80322266 C-9.31080669 26.50792564 -11.15251123 29.03284341 -13.0625 31.5625 C-16.36287155 36.09011055 -19.58983295 40.66701374 -22.8125 45.25 C-30.00211637 55.46916018 -37.29502286 65.62713917 -44.9765625 75.484375 C-46.1985587 77.14762926 -46.1985587 77.14762926 -47 80 C-42.42990394 80.37248432 -38.43249969 80.23560832 -34 79 C-29.89616159 75.50497279 -27.06281149 71.38234149 -24 67 C-22.64911983 65.47624669 -21.29532445 63.9550685 -19.9375 62.4375 C-16.60086909 58.19719822 -16.52079494 54.72455386 -16.34375 49.46484375 C-15.95796342 46.69857859 -15.45295152 45.70466593 -13.4375 43.8125 C-8.96869108 41.45621893 -6.99603479 41.28628074 -2 42 C0.8100346 43.79363911 2.50940468 45.01880935 4 48 C4.37593152 52.98109259 4.1765161 56.05673864 1 60 C-2.06349424 62.4678148 -3.36515127 63.05581906 -7.33203125 62.70703125 C-11.16510895 62.64278493 -11.16510895 62.64278493 -13.80859375 65.4921875 C-14.70643428 66.6027184 -15.58197652 67.7315508 -16.4375 68.875 C-16.90269043 69.46055664 -17.36788086 70.04611328 -17.84716797 70.64941406 C-18.79338886 71.84412757 -19.7306553 73.04598939 -20.65869141 74.25488281 C-22.60515633 76.78734209 -24.61879914 79.26476015 -26.625 81.75 C-27.25664063 82.54921875 -27.88828125 83.3484375 -28.5390625 84.171875 C-30 86 -30 86 -31 87 C-35.13962283 87.25301239 -39.29105996 87.18522549 -43.4375 87.1875 C-44.60861328 87.19974609 -45.77972656 87.21199219 -46.98632812 87.22460938 C-48.10330078 87.22654297 -49.22027344 87.22847656 -50.37109375 87.23046875 C-51.40161865 87.23457764 -52.43214355 87.23868652 -53.49389648 87.24291992 C-56 87 -56 87 -58 85 C-57.77602799 80.41657289 -55.41411759 77.35507302 -52.75 73.8125 C-51.8424068 72.57424888 -50.93485694 71.335966 -50.02734375 70.09765625 C-49.53991699 69.43910645 -49.05249023 68.78055664 -48.55029297 68.10205078 C-45.77515507 64.33922601 -43.04756559 60.54199282 -40.3125 56.75 C-39.75159668 55.97462891 -39.19069336 55.19925781 -38.61279297 54.40039062 C-35.29566447 49.81243334 -32.02756344 45.1949798 -28.80078125 40.54296875 C-26.434896 37.2019898 -23.99603238 33.91686973 -21.5625 30.625 C-17.46186339 25.07375534 -13.57247566 19.43447523 -9.78515625 13.6640625 C-7.70637542 10.56181189 -5.5040867 7.57933049 -3.2265625 4.62109375 C-2.09300616 3.12292215 -1.04210853 1.5631628 0 0 Z " fill="#1A96A7" transform="translate(60,85)"/>
<path d="M0 0 C4.5206339 -0.07406517 9.040916 -0.12856045 13.56201172 -0.16479492 C15.10048574 -0.17989711 16.63891661 -0.20038046 18.17724609 -0.22631836 C20.38650141 -0.26264074 22.59518848 -0.27971119 24.8046875 -0.29296875 C25.83914505 -0.31619453 25.83914505 -0.31619453 26.89450073 -0.33988953 C28.83544922 -0.34057617 28.83544922 -0.34057617 32 0 C34.29013653 3.4352048 34.17842973 4.985331 34 9 C32.68 9.66 31.36 10.32 30 11 C29.34 9.68 28.68 8.36 28 7 C20.41 6.67 12.82 6.34 5 6 C4.67 8.64 4.34 11.28 4 14 C9.61 14 15.22 14 21 14 C19.875 23 19.875 23 19 27 C17.78884521 27.03758423 17.78884521 27.03758423 16.55322266 27.07592773 C12.91031083 27.19165487 9.26767274 27.31448635 5.625 27.4375 C4.35398438 27.47681641 3.08296875 27.51613281 1.7734375 27.55664062 C0.56171875 27.59853516 -0.65 27.64042969 -1.8984375 27.68359375 C-3.57945557 27.73858032 -3.57945557 27.73858032 -5.29443359 27.79467773 C-7.96712771 27.82596013 -7.96712771 27.82596013 -10 29 C-10 30.65 -10 32.3 -10 34 C-7.37276604 35.31361698 -5.27389439 35.21253909 -2.3359375 35.31640625 C-0.65371094 35.37924805 -0.65371094 35.37924805 1.0625 35.44335938 C2.238125 35.48267578 3.41375 35.52199219 4.625 35.5625 C5.80835938 35.60568359 6.99171875 35.64886719 8.2109375 35.69335938 C11.14050328 35.79967426 14.07015588 35.90170642 17 36 C16.69249629 38.14655501 16.3788634 40.29223285 16.0625 42.4375 C15.88847656 43.63246094 15.71445313 44.82742187 15.53515625 46.05859375 C15 49 15 49 14 50 C11.9291528 50.1584265 9.85321971 50.25124422 7.77734375 50.31640625 C6.51728516 50.35830078 5.25722656 50.40019531 3.95898438 50.44335938 C2.61849264 50.48317596 1.2779978 50.52288814 -0.0625 50.5625 C-1.40691523 50.60568042 -2.7513166 50.64929456 -4.09570312 50.69335938 C-7.3970234 50.79985358 -10.69842236 50.9018646 -14 51 C-14 52.98 -14 54.96 -14 57 C-1.13 57.495 -1.13 57.495 12 58 C11 68 11 68 10 71 C4.34003584 71.07402368 -1.31964811 71.12854173 -6.97998047 71.16479492 C-8.90646267 71.17990395 -10.83291035 71.20039214 -12.75927734 71.22631836 C-15.52450057 71.26260925 -18.28927004 71.27970479 -21.0546875 71.29296875 C-22.3516304 71.31619453 -22.3516304 71.31619453 -23.67477417 71.33988953 C-26.10107422 71.34057617 -26.10107422 71.34057617 -30 71 C-34.91685393 63.62471911 -31.26483884 52.85108972 -29.65820312 44.66601562 C-29.49843994 43.86848877 -29.33867676 43.07096191 -29.17407227 42.24926758 C-28.68696365 39.80981395 -28.21850512 37.36728708 -27.75195312 34.92382812 C-27.44381035 33.35134615 -27.13460204 31.77907252 -26.82421875 30.20703125 C-26.68658615 29.48707474 -26.54895355 28.76711823 -26.40715027 28.02534485 C-24.20679217 17.20679217 -24.20679217 17.20679217 -21 14 C-19.65732587 13.91368126 -18.31025678 13.89293527 -16.96484375 13.90234375 C-16.15595703 13.90556641 -15.34707031 13.90878906 -14.51367188 13.91210938 C-13.66353516 13.92048828 -12.81339844 13.92886719 -11.9375 13.9375 C-11.08349609 13.94201172 -10.22949219 13.94652344 -9.34960938 13.95117188 C-7.23304337 13.96299627 -5.11651315 13.98093231 -3 14 C-2.87625 12.80375 -2.7525 11.6075 -2.625 10.375 C-2.24612292 6.71252153 -1.22264246 3.46912372 0 0 Z " fill="#F1A50B" transform="translate(118,86)"/>
<path d="M0 0 C1.53333984 -0.00386719 1.53333984 -0.00386719 3.09765625 -0.0078125 C4.16886719 -0.00007813 5.24007812 0.00765625 6.34375 0.015625 C7.95056641 0.00402344 7.95056641 0.00402344 9.58984375 -0.0078125 C10.61207031 -0.00523438 11.63429687 -0.00265625 12.6875 0 C14.09805664 0.00338379 14.09805664 0.00338379 15.53710938 0.00683594 C17.84375 0.265625 17.84375 0.265625 19.84375 2.265625 C19.87139893 4.13745117 19.87139893 4.13745117 19.55957031 6.37109375 C19.44955688 7.17853027 19.33954346 7.9859668 19.22619629 8.81787109 C18.66410738 12.41538362 18.06075961 15.99911774 17.390625 19.578125 C17.25015747 20.3416629 17.10968994 21.10520081 16.96496582 21.89187622 C16.51143309 24.35046332 16.05293391 26.80808758 15.59375 29.265625 C15.27699291 30.9711867 14.96026133 32.67675315 14.64355469 34.38232422 C12.84124786 44.06100871 11.00882695 53.7335545 9.09375 63.390625 C8.90780273 64.33421875 8.72185547 65.2778125 8.53027344 66.25 C4.66515491 85.44422009 4.66515491 85.44422009 2.84375 87.265625 C-11.59985334 89.08292739 -11.59985334 89.08292739 -16.453125 85.6328125 C-18.2928282 82.94611723 -19.68977653 80.17486453 -21.15625 77.265625 C-23.0776783 74.18586397 -25.09167351 71.16836318 -27.09375 68.140625 C-28.06367125 66.63961617 -29.03131423 65.13713136 -29.99609375 63.6328125 C-30.41238037 62.98425293 -30.82866699 62.33569336 -31.25756836 61.66748047 C-31.5541333 61.20486816 -31.85069824 60.74225586 -32.15625 60.265625 C-30.82291667 60.265625 -29.48958333 60.265625 -28.15625 60.265625 C-27.82625 58.615625 -27.49625 56.965625 -27.15625 55.265625 C-23.84460034 59.27041063 -20.91199002 63.44878907 -18.03125 67.765625 C-17.58910156 68.41660156 -17.14695313 69.06757813 -16.69140625 69.73828125 C-14.41070831 73.14899267 -12.49543822 76.35338975 -11.15625 80.265625 C-7.85625 80.265625 -4.55625 80.265625 -1.15625 80.265625 C-1.18348145 79.26611816 -1.21071289 78.26661133 -1.23876953 77.23681641 C-1.15550215 73.22963539 -0.61451375 69.65485596 0.1640625 65.7265625 C0.30334671 65.0150705 0.44263092 64.30357849 0.58613586 63.57052612 C1.04048713 61.25921541 1.50439847 58.94994547 1.96875 56.640625 C2.28567978 55.04012655 2.60216287 53.43953959 2.91821289 51.83886719 C5.79960522 37.29534794 8.7967268 22.77525927 11.84375 8.265625 C7.55375 8.265625 3.26375 8.265625 -1.15625 8.265625 C-1.259375 9.7403125 -1.3625 11.215 -1.46875 12.734375 C-2.10953448 19.77397912 -3.40612771 26.66961034 -4.74023438 33.60253906 C-5.16068103 35.78866427 -5.5731139 37.97619245 -5.984375 40.1640625 C-8.00094691 50.79971572 -8.00094691 50.79971572 -9.15625 54.265625 C-11.63125 54.760625 -11.63125 54.760625 -14.15625 55.265625 C-20.40117872 46.25508499 -26.5705616 37.19710143 -32.65625 28.078125 C-33.25518066 27.18198486 -33.85411133 26.28584473 -34.47119141 25.36254883 C-35.03757324 24.51200928 -35.60395508 23.66146973 -36.1875 22.78515625 C-36.68830078 22.03339111 -37.18910156 21.28162598 -37.70507812 20.50708008 C-42.15625 13.63187668 -42.15625 13.63187668 -42.15625 11.265625 C-41.49625 10.935625 -40.83625 10.605625 -40.15625 10.265625 C-39.50069881 7.73829265 -39.50069881 7.73829265 -39.15625 5.265625 C-36.01878734 9.06209808 -33.23444689 13.03004085 -30.53125 17.140625 C-29.65497531 18.46355981 -28.77867234 19.78647589 -27.90234375 21.109375 C-27.45358887 21.78871094 -27.00483398 22.46804687 -26.54248047 23.16796875 C-24.23269652 26.66315433 -21.91392526 30.15233236 -19.59375 33.640625 C-19.16433105 34.2888623 -18.73491211 34.93709961 -18.29248047 35.60498047 C-16.40811961 38.57974909 -16.40811961 38.57974909 -14.15625 41.265625 C-13.85388428 39.50919678 -13.85388428 39.50919678 -13.54541016 37.71728516 C-12.7967747 33.38106455 -12.03768458 29.04672916 -11.27539062 24.71289062 C-10.94667795 22.83546054 -10.62081835 20.95752862 -10.29785156 19.07910156 C-9.83363659 16.38209798 -9.35925428 13.68705443 -8.8828125 10.9921875 C-8.74001862 10.14943268 -8.59722473 9.30667786 -8.45010376 8.43838501 C-7.30340991 2.04400567 -6.6236634 0.01588953 0 0 Z " fill="#0FA880" transform="translate(191.15625,84.734375)"/>
<path d="M0 0 C2.61376953 -0.34057617 2.61376953 -0.34057617 5.8828125 -0.29296875 C7.04941406 -0.28330078 8.21601562 -0.27363281 9.41796875 -0.26367188 C10.64128906 -0.23853516 11.86460938 -0.21339844 13.125 -0.1875 C14.97158203 -0.16719727 14.97158203 -0.16719727 16.85546875 -0.14648438 C19.90407843 -0.11103543 22.951825 -0.06162079 26 0 C26 0.33 26 0.66 26 1 C24.84371094 1.09087891 24.84371094 1.09087891 23.6640625 1.18359375 C22.15972656 1.30927734 22.15972656 1.30927734 20.625 1.4375 C19.12839844 1.55931641 19.12839844 1.55931641 17.6015625 1.68359375 C15.02072387 1.84965626 15.02072387 1.84965626 13 3 C12.34786708 5.02463255 12.34786708 5.02463255 12 7 C10.22109375 6.98839844 10.22109375 6.98839844 8.40625 6.9765625 C4.54528562 7.46767989 3.02713791 8.59039886 0.65625 11.6484375 C-0.42041835 13.20726094 -1.47153241 14.78396271 -2.5 16.375 C-3.63403838 18.03781239 -4.76815262 19.70057304 -5.90234375 21.36328125 C-6.70647705 22.57105225 -6.70647705 22.57105225 -7.52685547 23.80322266 C-9.29899572 26.44586734 -11.1656213 29.00824789 -13.0625 31.5625 C-16.36287155 36.09011055 -19.58983295 40.66701374 -22.8125 45.25 C-30.00211637 55.46916018 -37.29502286 65.62713917 -44.9765625 75.484375 C-46.1985587 77.14762926 -46.1985587 77.14762926 -47 80 C-42.42990394 80.37248432 -38.43249969 80.23560832 -34 79 C-29.89616159 75.50497279 -27.06281149 71.38234149 -24 67 C-22.64911983 65.47624669 -21.29532445 63.9550685 -19.9375 62.4375 C-16.60086909 58.19719822 -16.52079494 54.72455386 -16.34375 49.46484375 C-15.95796342 46.69857859 -15.45295152 45.70466593 -13.4375 43.8125 C-8.96869108 41.45621893 -6.99603479 41.28628074 -2 42 C0.8100346 43.79363911 2.50940468 45.01880935 4 48 C4.37593152 52.98109259 4.1765161 56.05673864 1 60 C-2.06349424 62.4678148 -3.36515127 63.05581906 -7.33203125 62.70703125 C-11.16510895 62.64278493 -11.16510895 62.64278493 -13.80859375 65.4921875 C-14.70643428 66.6027184 -15.58197652 67.7315508 -16.4375 68.875 C-16.90269043 69.46055664 -17.36788086 70.04611328 -17.84716797 70.64941406 C-18.79338886 71.84412757 -19.7306553 73.04598939 -20.65869141 74.25488281 C-22.60515633 76.78734209 -24.61879914 79.26476015 -26.625 81.75 C-27.25664063 82.54921875 -27.88828125 83.3484375 -28.5390625 84.171875 C-30 86 -30 86 -31 87 C-35.13962283 87.25301239 -39.29105996 87.18522549 -43.4375 87.1875 C-44.60861328 87.19974609 -45.77972656 87.21199219 -46.98632812 87.22460938 C-48.10330078 87.22654297 -49.22027344 87.22847656 -50.37109375 87.23046875 C-51.40161865 87.23457764 -52.43214355 87.23868652 -53.49389648 87.24291992 C-56 87 -56 87 -58 85 C-57.77602799 80.41657289 -55.41411759 77.35507302 -52.75 73.8125 C-51.8424068 72.57424888 -50.93485694 71.335966 -50.02734375 70.09765625 C-49.53991699 69.43910645 -49.05249023 68.78055664 -48.55029297 68.10205078 C-45.77515507 64.33922601 -43.04756559 60.54199282 -40.3125 56.75 C-39.75159668 55.97462891 -39.19069336 55.19925781 -38.61279297 54.40039062 C-35.29566447 49.81243334 -32.02756344 45.1949798 -28.80078125 40.54296875 C-26.434896 37.2019898 -23.99603238 33.91686973 -21.5625 30.625 C-17.46186339 25.07375534 -13.57247566 19.43447523 -9.78515625 13.6640625 C-7.70637542 10.56181189 -5.5040867 7.57933049 -3.2265625 4.62109375 C-2.09300616 3.12292215 -1.04210853 1.5631628 0 0 Z " fill="#66C8EB" transform="translate(60,85)"/>
<path d="M0 0 C0.95310059 0.01047363 1.90620117 0.02094727 2.88818359 0.03173828 C4.43505859 0.04140625 4.43505859 0.04140625 6.01318359 0.05126953 C7.63353516 0.07640625 7.63353516 0.07640625 9.28662109 0.10205078 C10.37458984 0.11107422 11.46255859 0.12009766 12.58349609 0.12939453 C15.27642261 0.15301669 17.96891365 0.18595522 20.66162109 0.22705078 C20.66162109 0.55705078 20.66162109 0.88705078 20.66162109 1.22705078 C14.22662109 1.72205078 14.22662109 1.72205078 7.66162109 2.22705078 C7.00162109 3.87705078 6.34162109 5.52705078 5.66162109 7.22705078 C8.63162109 7.22705078 11.60162109 7.22705078 14.66162109 7.22705078 C14.66162109 7.55705078 14.66162109 7.88705078 14.66162109 8.22705078 C10.37162109 8.22705078 6.08162109 8.22705078 1.66162109 8.22705078 C1.55849609 9.70173828 1.45537109 11.17642578 1.34912109 12.69580078 C0.70833662 19.7354049 -0.58825661 26.63103612 -1.92236328 33.56396484 C-2.34280993 35.75009005 -2.75524281 37.93761823 -3.16650391 40.12548828 C-5.18307581 50.7611415 -5.18307581 50.7611415 -6.33837891 54.22705078 C-8.81337891 54.72205078 -8.81337891 54.72205078 -11.33837891 55.22705078 C-17.58330763 46.21651077 -23.75269051 37.15852721 -29.83837891 28.03955078 C-30.43730957 27.14341064 -31.03624023 26.24727051 -31.65332031 25.32397461 C-32.21970215 24.47343506 -32.78608398 23.62289551 -33.36962891 22.74658203 C-33.87042969 21.99481689 -34.37123047 21.24305176 -34.88720703 20.46850586 C-39.33837891 13.59330246 -39.33837891 13.59330246 -39.33837891 11.22705078 C-38.67837891 10.89705078 -38.01837891 10.56705078 -37.33837891 10.22705078 C-36.68282771 7.69971843 -36.68282771 7.69971843 -36.33837891 5.22705078 C-33.20091624 9.02352386 -30.4165758 12.99146664 -27.71337891 17.10205078 C-26.83710422 18.4249856 -25.96080125 19.74790167 -25.08447266 21.07080078 C-24.63571777 21.75013672 -24.18696289 22.42947266 -23.72460938 23.12939453 C-21.41482542 26.62458011 -19.09605417 30.11375814 -16.77587891 33.60205078 C-16.34645996 34.25028809 -15.91704102 34.89852539 -15.47460938 35.56640625 C-13.59024852 38.54117487 -13.59024852 38.54117487 -11.33837891 41.22705078 C-11.03601318 39.47062256 -11.03601318 39.47062256 -10.72753906 37.67871094 C-9.97890361 33.34249033 -9.21981348 29.00815494 -8.45751953 24.67431641 C-8.12880686 22.79688632 -7.80294726 20.9189544 -7.47998047 19.04052734 C-7.01576549 16.34352376 -6.54138318 13.64848021 -6.06494141 10.95361328 C-5.92214752 10.11085846 -5.77935364 9.26810364 -5.63223267 8.39981079 C-4.19902282 0.40771468 -4.19902282 0.40771468 0 0 Z " fill="#38A76B" transform="translate(188.33837890625,84.77294921875)"/>
<path d="M0 0 C1.07507813 -0.00257812 2.15015625 -0.00515625 3.2578125 -0.0078125 C5.875 0.125 5.875 0.125 6.875 1.125 C6.34861475 7.63572503 5.22736097 13.96380468 3.94921875 20.36328125 C3.66592461 21.80455635 3.66592461 21.80455635 3.37690735 23.27494812 C2.77556337 26.32982623 2.16910246 29.38366222 1.5625 32.4375 C1.16698453 34.44329371 0.77179976 36.44915265 0.37695312 38.45507812 C-1.16820166 46.29305261 -2.71628491 54.1302402 -4.31005859 61.95849609 C-4.49674606 62.87914352 -4.68343353 63.79979095 -4.8757782 64.74833679 C-5.22839375 66.48454141 -5.58341738 68.22025928 -5.9412384 69.95539856 C-6.57139751 73.06176722 -7.125 75.94632945 -7.125 79.125 C-5.475 79.455 -3.825 79.785 -2.125 80.125 C-2.125 80.455 -2.125 80.785 -2.125 81.125 C-3.094375 81.24875 -4.06375 81.3725 -5.0625 81.5 C-6.5784375 81.809375 -6.5784375 81.809375 -8.125 82.125 C-8.62 83.115 -8.62 83.115 -9.125 84.125 C24.535 84.62 24.535 84.62 58.875 85.125 C58.875 85.455 58.875 85.785 58.875 86.125 C49.37425675 86.14812484 39.87352312 86.1659158 30.37275791 86.17681217 C25.96162996 86.18204069 21.5505212 86.18913777 17.1394043 86.20043945 C12.88598885 86.21126944 8.63259191 86.21727707 4.37916374 86.21987724 C2.75278367 86.22173129 1.12640466 86.22535152 -0.49996758 86.23073006 C-2.77010193 86.23794198 -5.04015885 86.23899088 -7.31030273 86.23852539 C-9.25222755 86.24185631 -9.25222755 86.24185631 -11.23338318 86.24525452 C-14.125 86.125 -14.125 86.125 -15.125 85.125 C-15.08594829 74.98316539 -12.94245768 65.07765376 -10.9375 55.1875 C-10.62490354 53.61699442 -10.31298311 52.04635414 -10.00170898 50.47558594 C-9.20754803 46.47702719 -8.40462392 42.48028426 -7.59936523 38.48394775 C-6.83687521 34.69219825 -6.08269972 30.89879986 -5.328125 27.10546875 C-3.93539939 20.11030273 -2.53356639 13.11699532 -1.125 6.125 C-3.765 6.125 -6.405 6.125 -9.125 6.125 C-9.125 4.475 -9.125 2.825 -9.125 1.125 C-5.87030985 0.04010328 -3.41956791 -0.00823992 0 0 Z " fill="#26A0D8" transform="translate(81.125,85.875)"/>
<path d="M0 0 C-0.49757812 0.56203125 -0.99515625 1.1240625 -1.5078125 1.703125 C-3.2951646 4.45433714 -3.10429077 5.53992924 -2.875 8.75 C-3.35511207 17.24341112 -9.9601288 23.1753008 -15.41137695 29.18359375 C-17.0084162 30.95216223 -17.0084162 30.95216223 -18.29760742 32.80078125 C-20.50897947 35.85679021 -21.54904415 36.92069944 -25.33203125 37.5859375 C-26.48058594 37.51632813 -27.62914062 37.44671875 -28.8125 37.375 C-29.97394531 37.32085937 -31.13539062 37.26671875 -32.33203125 37.2109375 C-33.21246094 37.14132813 -34.09289063 37.07171875 -35 37 C-34.10854287 32.6064324 -31.73037049 29.63108656 -29.0625 26.125 C-28.06287842 24.7897535 -27.06420311 23.45379812 -26.06640625 22.1171875 C-25.5573877 21.4375293 -25.04836914 20.75787109 -24.52392578 20.05761719 C-21.70206425 16.24751642 -18.98036855 12.36531267 -16.26196289 8.48095703 C-11.2954726 1.45417767 -8.80949271 -0.16621684 0 0 Z " fill="#F3FBFC" transform="translate(48,128)"/>
<path d="M0 0 C2.8100346 1.79363911 4.50940468 3.01880935 6 6 C6.37593152 10.98109259 6.1765161 14.05673864 3 18 C-1.0120207 21.23190557 -3.97705039 21.09301759 -9 21 C-9.99 21.66 -10.98 22.32 -12 23 C-12.66 22.34 -13.32 21.68 -14 21 C-14.99 21 -15.98 21 -17 21 C-17 21.66 -17 22.32 -17 23 C-17.99 22.67 -18.98 22.34 -20 22 C-19.195625 21.236875 -18.39125 20.47375 -17.5625 19.6875 C-14.94991132 16.63947988 -14.69113646 14.40379079 -14.5625 10.4375 C-14.36850639 6.69036035 -14.23934682 4.43454916 -11.4375 1.8125 C-6.96869108 -0.54378107 -4.99603479 -0.71371926 0 0 Z " fill="#6CC5E5" transform="translate(58,127)"/>
<path d="M0 0 C1.06014313 -0.00095673 2.12028625 -0.00191345 3.21255493 -0.00289917 C5.44997212 -0.00357813 7.68739131 -0.00174368 9.92480469 0.00244141 C13.33272781 0.00778298 16.74051851 0.00249221 20.1484375 -0.00390625 C22.32812529 -0.00324521 24.507813 -0.00196351 26.6875 0 C27.69920258 -0.00202423 28.71090515 -0.00404846 29.75326538 -0.00613403 C35.25492098 0.01191099 40.53372292 0.32046042 45.9765625 1.1328125 C44.83436584 3.10343933 44.83436584 3.10343933 42.9765625 5.1328125 C40.38938904 5.62055969 40.38938904 5.62055969 37.25170898 5.6027832 C36.0771666 5.60570877 34.90262421 5.60863434 33.69248962 5.61164856 C32.42369461 5.59414047 31.1548996 5.57663239 29.84765625 5.55859375 C28.54707779 5.55530563 27.24649933 5.55201752 25.9065094 5.54862976 C23.15497386 5.54099169 20.40395888 5.52043718 17.65258789 5.48950195 C14.12278579 5.44988817 10.59332208 5.43188687 7.06332302 5.42219257 C3.69971196 5.41222674 0.33621872 5.39198431 -3.02734375 5.37109375 C-4.29816299 5.36370682 -5.56898224 5.35631989 -6.87831116 5.34870911 C-8.04970139 5.33587387 -9.22109161 5.32303864 -10.42797852 5.30981445 C-11.97993675 5.29504814 -11.97993675 5.29504814 -13.56324768 5.27998352 C-16.0234375 5.1328125 -16.0234375 5.1328125 -18.0234375 4.1328125 C-17.6934375 3.1428125 -17.3634375 2.1528125 -17.0234375 1.1328125 C-11.34502298 -0.07533528 -5.77509188 -0.01150884 0 0 Z " fill="#058DC7" transform="translate(90.0234375,165.8671875)"/>
<path d="M0 0 C4.5206339 -0.07406517 9.040916 -0.12856045 13.56201172 -0.16479492 C15.10048574 -0.17989711 16.63891661 -0.20038046 18.17724609 -0.22631836 C20.38650141 -0.26264074 22.59518848 -0.27971119 24.8046875 -0.29296875 C25.83914505 -0.31619453 25.83914505 -0.31619453 26.89450073 -0.33988953 C28.83544922 -0.34057617 28.83544922 -0.34057617 32 0 C34.29013653 3.4352048 34.17842973 4.985331 34 9 C32.02 9.99 32.02 9.99 30 11 C29.34 9.68 28.68 8.36 28 7 C16.615 6.505 16.615 6.505 5 6 C4.67 8.64 4.34 11.28 4 14 C3.01 14 2.02 14 1 14 C1.66 11.36 2.32 8.72 3 6 C2.34 6 1.68 6 1 6 C0.34 8.64 -0.32 11.28 -1 14 C-1.66 14 -2.32 14 -3 14 C-2.48212175 8.99384354 -1.63207357 4.78168923 0 0 Z " fill="#E9A921" transform="translate(118,86)"/>
<path d="M0 0 C4.7284583 5.71763004 8.68320259 11.91449187 12.74707031 18.109375 C13.89171724 19.83660529 15.06550849 21.54443043 16.2421875 23.25 C16.88414062 24.19875 17.52609375 25.1475 18.1875 26.125 C18.75855469 26.95257813 19.32960937 27.78015625 19.91796875 28.6328125 C21.25324781 31.55403672 20.98434498 32.98967513 20 36 C19.67 36.33 19.34 36.66 19 37 C18.67 37.99 18.34 38.98 18 40 C17.3709375 39.05640625 16.741875 38.1128125 16.09375 37.140625 C15.68326416 36.52493652 15.27277832 35.90924805 14.84985352 35.27490234 C13.9439418 33.91595285 13.03818205 32.55690203 12.13256836 31.19775391 C9.97857234 27.96543236 7.82317485 24.73410483 5.66015625 21.5078125 C4.96792969 20.47398438 4.27570313 19.44015625 3.5625 18.375 C2.63630859 16.99441406 2.63630859 16.99441406 1.69140625 15.5859375 C-3 8.41339492 -3 8.41339492 -3 6 C-2.34 5.67 -1.68 5.34 -1 5 C-0.34444881 2.47266765 -0.34444881 2.47266765 0 0 Z " fill="#86A850" transform="translate(152,90)"/>
<path d="M0 0 C3.31197969 3.99589197 6.206909 8.17594167 9.0625 12.5 C9.49626953 13.15097656 9.93003906 13.80195313 10.37695312 14.47265625 C17 24.4525899 17 24.4525899 17 27 C17.66 27.33 18.32 27.66 19 28 C18.34 28.66 17.68 29.32 17 30 C21.29 30.33 25.58 30.66 30 31 C30 31.33 30 31.66 30 32 C15.12679038 33.50572426 15.12679038 33.50572426 10.69921875 30.37109375 C8.86531956 27.68167832 7.46599351 24.90828736 6 22 C4.0785717 18.92023897 2.06457649 15.90273818 0.0625 12.875 C-0.90742125 11.37399117 -1.87506423 9.87150636 -2.83984375 8.3671875 C-3.25613037 7.71862793 -3.67241699 7.07006836 -4.10131836 6.40185547 C-4.3978833 5.93924316 -4.69444824 5.47663086 -5 5 C-3.66666667 5 -2.33333333 5 -1 5 C-0.67 3.35 -0.34 1.7 0 0 Z " fill="#1DA18F" transform="translate(164,140)"/>
<path d="M0 0 C0.66 0.33 1.32 0.66 2 1 C1.47431419 4.8661197 0.6202472 6.87030988 -2.0625 9.6875 C-5.70946179 13.64403825 -9.06135533 17.77642422 -12.3984375 21.99609375 C-14 24 -14 24 -15 25 C-16.85369611 25.08737645 -18.71067541 25.10698153 -20.56640625 25.09765625 C-21.69111328 25.09443359 -22.81582031 25.09121094 -23.97460938 25.08789062 C-25.15861328 25.07951172 -26.34261719 25.07113281 -27.5625 25.0625 C-28.75037109 25.05798828 -29.93824219 25.05347656 -31.16210938 25.04882812 C-34.10812226 25.03699675 -37.05403681 25.02051287 -40 25 C-40.33 24.34 -40.66 23.68 -41 23 C-32.75 23.33 -24.5 23.66 -16 24 C-15.67 23.01 -15.34 22.02 -15 21 C-14.34 21 -13.68 21 -13 21 C-13 20.34 -13 19.68 -13 19 C-18.61 19 -24.22 19 -30 19 C-30 18.67 -30 18.34 -30 18 C-29.24976563 18.06703125 -28.49953125 18.1340625 -27.7265625 18.203125 C-21.73796184 18.34402909 -21.73796184 18.34402909 -16.46630859 15.80712891 C-12.77032498 12.05903676 -9.35662652 7.71325305 -7 3 C-5.68 3 -4.36 3 -3 3 C-3 2.34 -3 1.68 -3 1 C-2.01 0.67 -1.02 0.34 0 0 Z " fill="#71C7E2" transform="translate(44,147)"/>
<path d="M0 0 C0.33 0 0.66 0 1 0 C1.02690104 2.79173055 1.04679053 5.58320348 1.0625 8.375 C1.07087891 9.1690625 1.07925781 9.963125 1.08789062 10.78125 C1.11328125 16.7734375 1.11328125 16.7734375 0 19 C-0.66 19 -1.32 19 -2 19 C-2.144375 20.258125 -2.28875 21.51625 -2.4375 22.8125 C-2.73748686 25.42667123 -3.15813297 27.47439892 -4 30 C15.8 30 35.6 30 56 30 C56 28.35 56 26.7 56 25 C56.66 24.67 57.32 24.34 58 24 C57.67 26.64 57.34 29.28 57 32 C36.21 32 15.42 32 -6 32 C-4.79033013 24.13714587 -3.56609453 16.43521826 -1.875 8.6875 C-1.69324219 7.83994141 -1.51148437 6.99238281 -1.32421875 6.11914062 C-0.88615927 4.07870569 -0.44359369 2.03923894 0 0 Z " fill="#CDF6FE" transform="translate(79,133)"/>
<path d="M0 0 C1.53214888 3.06429776 1.22938548 5.6165642 1 9 C-0.30103567 12.01292472 -1.64419314 13.67653922 -4.0625 15.875 C-8.42127714 17.5443189 -12.47624111 16.90475178 -17 16 C-18 15 -18 15 -18.1328125 12.6015625 C-18.13023438 11.61929688 -18.12765625 10.63703125 -18.125 9.625 C-18.12757812 8.64789063 -18.13015625 7.67078125 -18.1328125 6.6640625 C-18 4 -18 4 -17 1 C-16.01 1 -15.02 1 -14 1 C-14.66 3.64 -15.32 6.28 -16 9 C-14.54263913 9.19491452 -13.08405407 9.38069358 -11.625 9.5625 C-10.40683594 9.71912109 -10.40683594 9.71912109 -9.1640625 9.87890625 C-6.95100814 10.18237328 -6.95100814 10.18237328 -5 9 C-4.34227572 5.97065509 -4.34227572 5.97065509 -4 3 C-6.64 2.34 -9.28 1.68 -12 1 C-12 0.67 -12 0.34 -12 0 C-3.05084746 -1.34237288 -3.05084746 -1.34237288 0 0 Z " fill="#59BDE4" transform="translate(63,131)"/>
<path d="M0 0 C0.33 0 0.66 0 1 0 C1.27080558 6.99016901 0.22663765 13.50417155 -1 20.375 C-1.376277 22.52842309 -1.75134072 24.68205865 -2.125 26.8359375 C-2.37636719 28.25205322 -2.37636719 28.25205322 -2.6328125 29.69677734 C-3.05247841 31.94045841 -3.05247841 31.94045841 -3 34 C-2.34 34 -1.68 34 -1 34 C0.14051606 29.01716284 1.22225866 24.05531868 2 19 C2.33 19 2.66 19 3 19 C3.23946701 24.63495803 2.38109619 29.48930998 1 34.9375 C0.34 37.598125 -0.32 40.25875 -1 43 C-6.61 43 -12.22 43 -18 43 C-16.68 42.01 -15.36 41.02 -14 40 C-14.495 38.515 -14.495 38.515 -15 37 C-12.03 37 -9.06 37 -6 37 C-6.02707031 35.99445068 -6.05414063 34.98890137 -6.08203125 33.95288086 C-6.00080514 30.03879787 -5.47637649 26.58324421 -4.6875 22.75390625 C-4.55432373 22.09792953 -4.42114746 21.44195282 -4.28393555 20.76609802 C-3.86233055 18.69686526 -3.43134471 16.62972193 -3 14.5625 C-2.71031175 13.14921666 -2.42124343 11.7358061 -2.1328125 10.32226562 C-1.42902959 6.88001167 -0.71682742 3.43956417 0 0 Z " fill="#21A786" transform="translate(196,128)"/>
<path d="M0 0 C2 3.75 2 3.75 2 6 C1.34 6 0.68 6 0 6 C0 8.64 0 11.28 0 14 C-2.6821281 15.34106405 -4.88398032 15.21450419 -7.8828125 15.31640625 C-9.63271484 15.37924805 -9.63271484 15.37924805 -11.41796875 15.44335938 C-12.64128906 15.48267578 -13.86460938 15.52199219 -15.125 15.5625 C-16.35605469 15.60568359 -17.58710937 15.64886719 -18.85546875 15.69335938 C-21.90352853 15.79968704 -24.9516719 15.90171781 -28 16 C-28 16.99 -28 17.98 -28 19 C-20.08 19.33 -12.16 19.66 -4 20 C-4 20.66 -4 21.32 -4 22 C-8.10410755 22.05796132 -12.20811016 22.09358313 -16.3125 22.125 C-17.47974609 22.14175781 -18.64699219 22.15851563 -19.84960938 22.17578125 C-21.52700195 22.18544922 -21.52700195 22.18544922 -23.23828125 22.1953125 C-24.7857605 22.21102295 -24.7857605 22.21102295 -26.36450195 22.22705078 C-29 22 -29 22 -32 20 C-32.375 17.5 -32.375 17.5 -32 15 C-28.45986775 12.63991183 -26.98878045 12.76536356 -22.80078125 12.8046875 C-21.59228516 12.81113281 -20.38378906 12.81757812 -19.13867188 12.82421875 C-17.2447168 12.84935547 -17.2447168 12.84935547 -15.3125 12.875 C-14.03826172 12.88402344 -12.76402344 12.89304687 -11.45117188 12.90234375 C-8.30059373 12.92594359 -5.15039017 12.95886806 -2 13 C-1.90912109 12.09507813 -1.90912109 12.09507813 -1.81640625 11.171875 C-1.73261719 10.37265625 -1.64882812 9.5734375 -1.5625 8.75 C-1.48128906 7.96109375 -1.40007812 7.1721875 -1.31640625 6.359375 C-1.02365007 4.17635361 -0.57935581 2.1226818 0 0 Z " fill="#FEF5D3" transform="translate(139,100)"/>
<path d="M0 0 C0.99 0.33 1.98 0.66 3 1 C3.09945415 7.11090483 3.0712828 12.97403427 2 19 C-0.64 19 -3.28 19 -6 19 C-5.34 18.01 -4.68 17.02 -4 16 C-10.48884062 14.85395084 -16.918136 14.77960143 -23.49609375 14.68359375 C-24.68477554 14.66281265 -25.87345734 14.64203156 -27.09815979 14.62062073 C-30.87788368 14.55548013 -34.65767431 14.49640575 -38.4375 14.4375 C-41.00716823 14.39428101 -43.57682983 14.35066566 -46.14648438 14.30664062 C-52.43091999 14.19983527 -58.7154213 14.09800429 -65 14 C-65 13.67 -65 13.34 -65 13 C-43.55 12.67 -22.1 12.34 0 12 C0 8.04 0 4.08 0 0 Z " fill="#148DB1" transform="translate(139,152)"/>
<path d="M0 0 C0.95310059 0.01047363 1.90620117 0.02094727 2.88818359 0.03173828 C4.43505859 0.04140625 4.43505859 0.04140625 6.01318359 0.05126953 C7.63353516 0.07640625 7.63353516 0.07640625 9.28662109 0.10205078 C10.37458984 0.11107422 11.46255859 0.12009766 12.58349609 0.12939453 C15.27642261 0.15301669 17.96891365 0.18595522 20.66162109 0.22705078 C20.66162109 0.55705078 20.66162109 0.88705078 20.66162109 1.22705078 C14.22662109 1.72205078 14.22662109 1.72205078 7.66162109 2.22705078 C7.00162109 3.87705078 6.34162109 5.52705078 5.66162109 7.22705078 C8.63162109 7.22705078 11.60162109 7.22705078 14.66162109 7.22705078 C14.66162109 7.55705078 14.66162109 7.88705078 14.66162109 8.22705078 C10.37162109 8.22705078 6.08162109 8.22705078 1.66162109 8.22705078 C1.51724609 9.93892578 1.37287109 11.65080078 1.22412109 13.41455078 C0.91428424 17.08833066 0.44557478 20.62349897 -0.33837891 24.22705078 C-0.66837891 24.22705078 -0.99837891 24.22705078 -1.33837891 24.22705078 C-1.53656174 17.52186492 -1.64682691 11.5752828 0.66162109 5.22705078 C-0.32837891 5.55705078 -1.31837891 5.88705078 -2.33837891 6.22705078 C-3.21955818 9.10635563 -3.91962113 11.85262107 -4.52587891 14.78955078 C-4.703125 15.59585938 -4.88037109 16.40216797 -5.06298828 17.23291016 C-5.49987492 19.22841938 -5.92064564 21.22744434 -6.33837891 23.22705078 C-7.22608063 20.30290494 -7.37335217 18.19197568 -6.85009766 15.18798828 C-6.65577148 14.07037109 -6.65577148 14.07037109 -6.45751953 12.93017578 C-6.24385742 11.77775391 -6.24385742 11.77775391 -6.02587891 10.60205078 C-5.89503906 9.82603516 -5.76419922 9.05001953 -5.62939453 8.25048828 C-4.22052124 0.40980212 -4.22052124 0.40980212 0 0 Z " fill="#56A97F" transform="translate(188.33837890625,84.77294921875)"/>
<path d="M0 0 C1.65 0 3.3 0 5 0 C7.01953125 2.40625 7.01953125 2.40625 8.8125 5.5 C9.41707031 6.5209375 10.02164063 7.541875 10.64453125 8.59375 C11.09183594 9.3878125 11.53914062 10.181875 12 11 C9.525 10.01 9.525 10.01 7 9 C7 9.66 7 10.32 7 11 C5.68 11 4.36 11 3 11 C2.87625 12.258125 2.7525 13.51625 2.625 14.8125 C2.30131941 18.10325263 1.93395001 19.09907498 0 22 C-0.12375 21.195625 -0.2475 20.39125 -0.375 19.5625 C-0.58125 18.716875 -0.7875 17.87125 -1 17 C-1.66 16.67 -2.32 16.34 -3 16 C-2.01 10.72 -1.02 5.44 0 0 Z " fill="#0D99B1" transform="translate(144,119)"/>
<path d="M0 0 C0.33 0 0.66 0 1 0 C1.28343454 7.25907338 0.49350423 13.90312955 -1 21 C-1.33 22.65 -1.66 24.3 -2 26 C21.76 26.33 45.52 26.66 70 27 C70 27.33 70 27.66 70 28 C60.49925675 28.02312484 50.99852312 28.0409158 41.49775791 28.05181217 C37.08662996 28.05704069 32.6755212 28.06413777 28.2644043 28.07543945 C24.01098885 28.08626944 19.75759191 28.09227707 15.50416374 28.09487724 C13.87778367 28.09673129 12.25140466 28.10035152 10.62503242 28.10573006 C8.35489807 28.11294198 6.08484115 28.11399088 3.81469727 28.11352539 C1.87277245 28.11685631 1.87277245 28.11685631 -0.10838318 28.12025452 C-3 28 -3 28 -4 27 C-3.94107082 17.76285153 -2.1319186 8.94333147 0 0 Z " fill="#3DA1CC" transform="translate(70,144)"/>
<path d="M0 0 C8.27826087 10.05217391 8.27826087 10.05217391 10 16 C9.625 18.3125 9.625 18.3125 9 20 C8.34 20 7.68 20 7 20 C6.67 20.66 6.34 21.32 6 22 C4.49445366 19.71180854 2.99542957 17.41978831 1.5 15.125 C1.07074219 14.47402344 0.64148438 13.82304688 0.19921875 13.15234375 C-3 8.2265625 -3 8.2265625 -3 6 C-2.34 5.67 -1.68 5.34 -1 5 C-0.34444881 2.47266765 -0.34444881 2.47266765 0 0 Z " fill="#9AA639" transform="translate(152,90)"/>
<path d="M0 0 C0.66 0 1.32 0 2 0 C1.39969169 7.30191376 0.29701918 14.42867584 -1.0625 21.625 C-1.24876953 22.62917969 -1.43503906 23.63335937 -1.62695312 24.66796875 C-2.08097233 27.11268755 -2.53870544 29.55664548 -3 32 C-3.33 32 -3.66 32 -4 32 C-4.33 28.37 -4.66 24.74 -5 21 C-5.99 21.33 -6.98 21.66 -8 22 C-8 25.3 -8 28.6 -8 32 C-8.66 32 -9.32 32 -10 32 C-9.43708547 22.83808082 -7.79203512 13.98271694 -6 5 C-5.67 5 -5.34 5 -5 5 C-4.67 8.63 -4.34 12.26 -4 16 C-3.67 16 -3.34 16 -3 16 C-1.29915181 10.67067568 -0.47986031 5.56890517 0 0 Z " fill="#23A786" transform="translate(207,96)"/>
<path d="M0 0 C0.33 0.99 0.66 1.98 1 3 C-0.8125 6.1875 -0.8125 6.1875 -3 9 C-3.66 9 -4.32 9 -5 9 C-5.2475 9.9075 -5.495 10.815 -5.75 11.75 C-7.06050513 15.15731334 -8.4287784 16.51172103 -11 19 C-11.7872678 21.1381966 -11.7872678 21.1381966 -12 23 C-11.34 23 -10.68 23 -10 23 C-10.33 22.01 -10.66 21.02 -11 20 C-9.68 20.33 -8.36 20.66 -7 21 C-8.49076434 24.2826932 -10.38620321 26.93077441 -12.625 29.75 C-13.25664062 30.54921875 -13.88828125 31.3484375 -14.5390625 32.171875 C-15.02117188 32.77515625 -15.50328125 33.3784375 -16 34 C-16 31 -16 31 -14.4375 29 C-13.7259375 28.01 -13.7259375 28.01 -13 27 C-13.33 26.01 -13.66 25.02 -14 24 C-14.48210938 24.6496875 -14.96421875 25.299375 -15.4609375 25.96875 C-16.09257812 26.8040625 -16.72421875 27.639375 -17.375 28.5 C-18.00148438 29.3353125 -18.62796875 30.170625 -19.2734375 31.03125 C-20.12808594 32.00578125 -20.12808594 32.00578125 -21 33 C-21.66 33 -22.32 33 -23 33 C-21.64690001 30.13294476 -20.10818326 27.6192825 -18.2421875 25.05859375 C-17.70231201 24.31464355 -17.16243652 23.57069336 -16.60620117 22.80419922 C-16.03490479 22.02318848 -15.4636084 21.24217773 -14.875 20.4375 C-14.29403564 19.63844238 -13.71307129 18.83938477 -13.11450195 18.01611328 C-11.4121514 15.67558801 -9.70618768 13.33772871 -8 11 C-7.12068009 9.79066525 -6.24172517 8.58106496 -5.36328125 7.37109375 C-3.57777114 4.91241107 -1.79011819 2.45532827 0 0 Z " fill="#6EC5E4" transform="translate(29,129)"/>
<path d="M0 0 C0.99386719 0.00902344 1.98773438 0.01804687 3.01171875 0.02734375 C4.15060547 0.04474609 4.15060547 0.04474609 5.3125 0.0625 C4.3125 2.0625 3.3125 4.0625 2.3125 6.0625 C-0.05078125 6.40625 -0.05078125 6.40625 -3 6.5625 C-6.76616301 6.7636302 -9.41700969 7.13594038 -12.6875 9.0625 C-12.6875 10.7125 -12.6875 12.3625 -12.6875 14.0625 C-14.0075 13.7325 -15.3275 13.4025 -16.6875 13.0625 C-16.6875 12.4025 -16.6875 11.7425 -16.6875 11.0625 C-16.0275 11.0625 -15.3675 11.0625 -14.6875 11.0625 C-14.44 10.27875 -14.1925 9.495 -13.9375 8.6875 C-12.53360901 5.73932892 -11.68074263 5.1600223 -8.6875 4.0625 C-8.6875 3.0725 -8.6875 2.0825 -8.6875 1.0625 C-5.53819107 0.01273036 -3.29935544 -0.03881595 0 0 Z " fill="#59C0E5" transform="translate(69.6875,85.9375)"/>
<path d="M0 0 C0.33 0 0.66 0 1 0 C1.07972012 4.7034873 0.93491183 8.32544083 0 13 C-25.08 13 -50.16 13 -76 13 C-76 12.67 -76 12.34 -76 12 C-51.91 11.67 -27.82 11.34 -3 11 C-2.01 7.37 -1.02 3.74 0 0 Z " fill="#E6FEFF" transform="translate(143,160)"/>
<path d="M0 0 C7.59 0 15.18 0 23 0 C23 0.99 23 1.98 23 3 C16.07 3 9.14 3 2 3 C2 4.32 2 5.64 2 7 C6.62 7 11.24 7 16 7 C16 7.33 16 7.66 16 8 C10.39 8 4.78 8 -1 8 C-0.67 5.36 -0.34 2.72 0 0 Z " fill="#FCF1C7" transform="translate(123,92)"/>
<path d="M0 0 C0.66 0 1.32 0 2 0 C1.98839844 1.13179687 1.97679688 2.26359375 1.96484375 3.4296875 C1.95546546 4.91145669 1.9463653 6.39322765 1.9375 7.875 C1.92912109 8.62136719 1.92074219 9.36773437 1.91210938 10.13671875 C1.79311916 14.19845578 1.79311916 14.19845578 3 18 C22.8 18.495 22.8 18.495 43 19 C43.495 17.515 43.495 17.515 44 16 C44 17.32 44 18.64 44 20 C38.21607249 20.16757848 32.43200914 20.32814209 26.64770508 20.48217773 C24.67955267 20.53558162 22.71145151 20.59090974 20.7434082 20.64819336 C17.91629078 20.73014912 15.08906195 20.80520687 12.26171875 20.87890625 C11.38037766 20.90594131 10.49903656 20.93297638 9.59098816 20.96083069 C8.77036392 20.98092697 7.94973969 21.00102325 7.10424805 21.02172852 C6.02169991 21.05170677 6.02169991 21.05170677 4.9172821 21.08229065 C3 21 3 21 0 20 C-2.80866533 14.38266934 -0.76091022 5.992168 0 0 Z " fill="#FDECBA" transform="translate(85,138)"/>
<path d="M0 0 C0.33 0 0.66 0 1 0 C2.51708428 11.52164009 2.51708428 11.52164009 0 17 C-0.66 17 -1.32 17 -2 17 C-2 17.99 -2 18.98 -2 20 C-2.66 20 -3.32 20 -4 20 C-4 21.98 -4 23.96 -4 26 C-4.66 26 -5.32 26 -6 26 C-8.44045073 22.54269479 -9.78065514 19.03321763 -11 15 C-10.01 14.67 -9.02 14.34 -8 14 C-7.34 13.34 -6.68 12.68 -6 12 C-5.01 13.32 -4.02 14.64 -3 16 C-2.01 10.72 -1.02 5.44 0 0 Z " fill="#48A774" transform="translate(180,110)"/>
<path d="M0 0 C2.64 0 5.28 0 8 0 C7.34 2.31 6.68 4.62 6 7 C6.66 7 7.32 7 8 7 C8 7.66 8 8.32 8 9 C7.34 9 6.68 9 6 9 C6.03480469 9.556875 6.06960937 10.11375 6.10546875 10.6875 C6.313323 16.54701038 5.34325807 20.6300336 3 26 C2.34 25.67 1.68 25.34 1 25 C0.81677567 19.68649431 1.2425695 16.05261268 3 11 C3.47912518 6.30457325 2.71602427 3.84770104 0 0 Z " fill="#03AA81" transform="translate(201,87)"/>
<path d="M0 0 C0.66 0.33 1.32 0.66 2 1 C1.64005447 3.6635969 1.28838998 5.58183452 -0.25 7.8125 C-2.58011277 9.39364795 -4.24501755 9.22337696 -7 9 C-7.33 10.65 -7.66 12.3 -8 14 C-8.66 14 -9.32 14 -10 14 C-10.33 15.32 -10.66 16.64 -11 18 C-11.99 17.67 -12.98 17.34 -14 17 C-13.49933555 12.66090813 -10.7079082 10.24948984 -8 7 C-7.14720662 4.78264561 -7.14720662 4.78264561 -7 3 C-5.68 3 -4.36 3 -3 3 C-3 2.34 -3 1.68 -3 1 C-2.01 0.67 -1.02 0.34 0 0 Z " fill="#5EC7EE" transform="translate(44,147)"/>
<path d="M0 0 C11.22 0 22.44 0 34 0 C34 0.33 34 0.66 34 1 C18.655 1.495 18.655 1.495 3 2 C2.01 6.29 1.02 10.58 0 15 C-5.94 15.33 -11.88 15.66 -18 16 C-18.99 18.31 -19.98 20.62 -21 23 C-21.33 23 -21.66 23 -22 23 C-22.1875 19.625 -22.1875 19.625 -22 16 C-18.89914429 13.93276286 -18.27068319 13.75502577 -14.76953125 13.8046875 C-13.56586914 13.81435547 -13.56586914 13.81435547 -12.33789062 13.82421875 C-11.50451172 13.84097656 -10.67113281 13.85773438 -9.8125 13.875 C-8.5450293 13.88853516 -8.5450293 13.88853516 -7.25195312 13.90234375 C-5.16784757 13.92589297 -3.08388783 13.96176353 -1 14 C-0.67 9.38 -0.34 4.76 0 0 Z " fill="#F8E7B3" transform="translate(115,85)"/>
<path d="M0 0 C2.4375 0.75 2.4375 0.75 4.4375 1.75 C4.625 4.625 4.625 4.625 4.4375 7.75 C1.0022952 10.04013653 -0.547831 9.92842973 -4.5625 9.75 C-5.89328101 3.33805513 -5.89328101 3.33805513 -4.4375 0.75 C-2.5625 -0.25 -2.5625 -0.25 0 0 Z " fill="#E3F9FB" transform="translate(54.5625,132.25)"/>
<path d="M0 0 C1.53214888 3.06429776 1.22938548 5.6165642 1 9 C-0.25 11.875 -0.25 11.875 -2 14 C-4.1875 14.8125 -4.1875 14.8125 -6 15 C-5.34 14.67 -4.68 14.34 -4 14 C-4.185625 13.29875 -4.37125 12.5975 -4.5625 11.875 C-5.05156976 8.66111302 -4.66231558 6.16439664 -4 3 C-6.64 2.34 -9.28 1.68 -12 1 C-12 0.67 -12 0.34 -12 0 C-3.05084746 -1.34237288 -3.05084746 -1.34237288 0 0 Z " fill="#4CB2D6" transform="translate(63,131)"/>
<path d="M0 0 C0.66 0 1.32 0 2 0 C2 0.66 2 1.32 2 2 C2.60328125 2.22429687 3.2065625 2.44859375 3.828125 2.6796875 C6.66234919 4.40265113 7.37142854 6.13809517 8.75 9.125 C9.17796875 10.03507813 9.6059375 10.94515625 10.046875 11.8828125 C10.51867187 12.93082031 10.51867187 12.93082031 11 14 C9.68 14.33 8.36 14.66 7 15 C7 14.34 7 13.68 7 13 C6.01 13 5.02 13 4 13 C1.8450611 10.61417479 0.30575652 7.93117958 -1 5 C-0.8125 2 -0.8125 2 0 0 Z " fill="#0DA096" transform="translate(164,146)"/>
<path d="M0 0 C0.33 0 0.66 0 1 0 C1.33 1.65 1.66 3.3 2 5 C2.33 4.34 2.66 3.68 3 3 C3.66 3.33 4.32 3.66 5 4 C4.67 5.32 4.34 6.64 4 8 C-1.28 8 -6.56 8 -12 8 C-10.68 7.01 -9.36 6.02 -8 5 C-8.33 4.01 -8.66 3.02 -9 2 C-6.03 2 -3.06 2 0 2 C0 1.34 0 0.68 0 0 Z " fill="#0AA481" transform="translate(190,163)"/>
<path d="M0 0 C1.98 0 3.96 0 6 0 C5.34 1.65 4.68 3.3 4 5 C6.97 5 9.94 5 13 5 C13 5.33 13 5.66 13 6 C8.71 6 4.42 6 0 6 C-0.144375 7.711875 -0.28875 9.42375 -0.4375 11.1875 C-0.74733686 14.86127988 -1.21604632 18.39644819 -2 22 C-2.33 22 -2.66 22 -3 22 C-3.36801906 14.06714481 -2.77476512 7.4654395 0 0 Z " fill="#3EAD7F" transform="translate(190,87)"/>
<path d="M0 0 C2 2 2 2 2.08422852 4.06762695 C1.24643592 12.22636738 -0.33765014 20.17564696 -2.0625 28.1875 C-2.34758294 29.53438305 -2.63209181 30.88138775 -2.91601562 32.22851562 C-3.60506737 35.48691284 -4.29983808 38.74397542 -5 42 C-5.33 42 -5.66 42 -6 42 C-6.24613739 35.47735909 -5.53020433 29.35537418 -4 23 C-3.67 22.67 -3.34 22.34 -3 22 C-2.79224439 20.33795513 -2.63281745 18.66970509 -2.5 17 C-2.11111111 12.11111111 -2.11111111 12.11111111 -1 11 C-0.95372155 9.33397597 -0.96213099 7.66623639 -1 6 C-1.03786901 4.33376361 -1.04627845 2.66602403 -1 1 C-0.67 0.67 -0.34 0.34 0 0 Z " fill="#379BC9" transform="translate(81,110)"/>
<path d="M0 0 C0.33 0 0.66 0 1 0 C1.08948558 4.47427924 0.85743651 8.60563789 0 13 C1.65 13.33 3.3 13.66 5 14 C5 14.33 5 14.66 5 15 C4.030625 15.12375 3.06125 15.2475 2.0625 15.375 C1.051875 15.58125 0.04125 15.7875 -1 16 C-1.33 16.66 -1.66 17.32 -2 18 C-1.34 18.33 -0.68 18.66 0 19 C-1.98 19 -3.96 19 -6 19 C-6.8125 16.8125 -6.8125 16.8125 -7 14 C-6.236875 13.2575 -5.47375 12.515 -4.6875 11.75 C-1.15567999 8.13604464 -0.71193376 4.87727754 0 0 Z " fill="#2198D0" transform="translate(74,152)"/>
<path d="M0 0 C0.66 0 1.32 0 2 0 C2.042721 1.66611905 2.04063832 3.33382885 2 5 C1 6 1 6 -1.68383789 6.11352539 C-2.85164795 6.10828857 -4.01945801 6.10305176 -5.22265625 6.09765625 C-6.48271484 6.09443359 -7.74277344 6.09121094 -9.04101562 6.08789062 C-10.38151109 6.07953403 -11.72200588 6.07106907 -13.0625 6.0625 C-14.40689942 6.0574866 -15.7513006 6.05292342 -17.09570312 6.04882812 C-20.39717941 6.03699488 -23.69856803 6.02050971 -27 6 C-26.67 5.34 -26.34 4.68 -26 4 C-17.42 4 -8.84 4 0 4 C0 2.68 0 1.36 0 0 Z " fill="#EEB238" transform="translate(131,130)"/>
<path d="M0 0 C5.61 0 11.22 0 17 0 C16.67 1.32 16.34 2.64 16 4 C11.38 4 6.76 4 2 4 C1.34 2.68 0.68 1.36 0 0 Z " fill="#F2A403" transform="translate(121,87)"/>
<path d="M0 0 C3 3.75 3 3.75 3 6 C3.66 6.33 4.32 6.66 5 7 C4.34 7.66 3.68 8.32 3 9 C7.29 9.33 11.58 9.66 16 10 C16 10.33 16 10.66 16 11 C10.39 11 4.78 11 -1 11 C-3.36363636 5.09090909 -3.36363636 5.09090909 -2 1 C-1.34 0.67 -0.68 0.34 0 0 Z " fill="#1AA88D" transform="translate(178,161)"/>
<path d="M0 0 C0.33 0 0.66 0 1 0 C1.02690104 2.79173055 1.04679053 5.58320348 1.0625 8.375 C1.07087891 9.1690625 1.07925781 9.963125 1.08789062 10.78125 C1.11328125 16.7734375 1.11328125 16.7734375 0 19 C-0.66 19 -1.32 19 -2 19 C-2.144375 20.258125 -2.28875 21.51625 -2.4375 22.8125 C-2.73748686 25.42667123 -3.15813297 27.47439892 -4 30 C-2.35 30 -0.7 30 1 30 C1 30.33 1 30.66 1 31 C-0.98 31 -2.96 31 -5 31 C-4.57706486 20.40547474 -2.31761729 10.30531225 0 0 Z " fill="#D4F4FB" transform="translate(79,133)"/>
<path d="M0 0 C1.62418745 -0.08090971 3.24951745 -0.13914995 4.875 -0.1875 C5.77992188 -0.22230469 6.68484375 -0.25710937 7.6171875 -0.29296875 C8.79667969 -0.14794922 8.79667969 -0.14794922 10 0 C12.29013653 3.4352048 12.17842973 4.985331 12 9 C10.02 9.99 10.02 9.99 8 11 C7.731875 10.38125 7.46375 9.7625 7.1875 9.125 C6.04443152 6.7004767 6.04443152 6.7004767 3 5 C3.99 5 4.98 5 6 5 C6 3.68 6 2.36 6 1 C4.02 1 2.04 1 0 1 C0 0.67 0 0.34 0 0 Z " fill="#C7A82C" transform="translate(140,86)"/>
<path d="M0 0 C1.98 0 3.96 0 6 0 C7.25069801 2.50139602 7.13302467 4.27392691 7.125 7.0625 C7.12757812 7.96097656 7.13015625 8.85945313 7.1328125 9.78515625 C7 12 7 12 6 13 C5.79162581 14.82906235 5.63250341 16.66388134 5.5 18.5 C5.11111111 23.88888889 5.11111111 23.88888889 4 25 C3.63239269 27.32817964 3.29758419 29.6618385 3 32 C2.34 32 1.68 32 1 32 C1.44845216 25.1495067 2.66795253 18.72546671 4.37890625 12.078125 C5.00672011 8.96669528 5.10896587 6.16474782 5 3 C2.525 2.01 2.525 2.01 0 1 C0 0.67 0 0.34 0 0 Z " fill="#D4F6FC" transform="translate(82,84)"/>
<path d="M0 0 C0.33 0 0.66 0 1 0 C1.02686553 1.97909398 1.04633375 3.95828971 1.0625 5.9375 C1.07410156 7.03964844 1.08570312 8.14179687 1.09765625 9.27734375 C1 12 1 12 0 13 C-0.23571103 15.12139929 -0.46797756 17.2432587 -0.6796875 19.3671875 C-1.19807243 23.62805872 -2.09819009 27.80614614 -3 32 C-3.66 32 -4.32 32 -5 32 C-4.39969169 24.69808624 -3.29701918 17.57132416 -1.9375 10.375 C-1.75123047 9.37082031 -1.56496094 8.36664063 -1.37304688 7.33203125 C-0.91902767 4.88731245 -0.46129456 2.44335452 0 0 Z " fill="#41A5CF" transform="translate(76,112)"/>
<path d="M0 0 C2.64 0 5.28 0 8 0 C8 1.32 8 2.64 8 4 C5.11734851 4.96088383 3.32337729 5.11670941 0.33203125 5.09765625 C-0.56064453 5.09443359 -1.45332031 5.09121094 -2.37304688 5.08789062 C-3.76620117 5.07532227 -3.76620117 5.07532227 -5.1875 5.0625 C-6.12787109 5.05798828 -7.06824219 5.05347656 -8.03710938 5.04882812 C-10.35813712 5.03704626 -12.67903644 5.02059558 -15 5 C-15 4.67 -15 4.34 -15 4 C-10.38 3.67 -5.76 3.34 -1 3 C-0.67 2.01 -0.34 1.02 0 0 Z " fill="#DFA514" transform="translate(138,87)"/>
<path d="M0 0 C0.66 0 1.32 0 2 0 C1.53632084 11.19785165 -0.78431688 22.0432237 -3 33 C-3.33 33 -3.66 33 -4 33 C-4.02686553 31.02090602 -4.04633375 29.04171029 -4.0625 27.0625 C-4.07410156 25.96035156 -4.08570313 24.85820312 -4.09765625 23.72265625 C-4 21 -4 21 -3 20 C-2.79224439 18.33795513 -2.63281745 16.66970509 -2.5 15 C-2.11111111 10.11111111 -2.11111111 10.11111111 -1 9 C-0.76807135 7.48530552 -0.58784762 5.96245438 -0.4375 4.4375 C-0.35371094 3.61121094 -0.26992187 2.78492187 -0.18359375 1.93359375 C-0.12300781 1.29550781 -0.06242188 0.65742187 0 0 Z " fill="#D1F5F8" transform="translate(141,123)"/>
<path d="M0 0 C1.76543485 0.14684146 3.52627432 0.34727177 5.28515625 0.55859375 C5.28515625 0.88859375 5.28515625 1.21859375 5.28515625 1.55859375 C0.33515625 1.88859375 -4.61484375 2.21859375 -9.71484375 2.55859375 C-9.71484375 3.21859375 -9.71484375 3.87859375 -9.71484375 4.55859375 C-10.37484375 4.55859375 -11.03484375 4.55859375 -11.71484375 4.55859375 C-11.71484375 5.87859375 -11.71484375 7.19859375 -11.71484375 8.55859375 C-13.71484375 10.80859375 -13.71484375 10.80859375 -15.71484375 12.55859375 C-16.70484375 12.22859375 -17.69484375 11.89859375 -18.71484375 11.55859375 C-14.03844989 2.08274303 -10.19261263 -0.59322084 0 0 Z " fill="#D2F2FA" transform="translate(74.71484375,91.44140625)"/>
<path d="M0 0 C0.99 0.99 1.98 1.98 3 3 C2.01 3.33 1.02 3.66 0 4 C0.01160156 4.69867188 0.02320313 5.39734375 0.03515625 6.1171875 C0.04869141 7.48230469 0.04869141 7.48230469 0.0625 8.875 C0.07410156 9.77992188 0.08570313 10.68484375 0.09765625 11.6171875 C0 14 0 14 -1 16 C-0.9071875 17.918125 -0.9071875 17.918125 -0.8125 19.875 C-0.74588216 23.20589183 -0.80681056 23.7585132 -3 26.5 C-3.66 26.995 -4.32 27.49 -5 28 C-4.37922374 21.52432348 -3.33183542 15.28837757 -1.9375 8.9375 C-1.75123047 8.07189453 -1.56496094 7.20628906 -1.37304688 6.31445312 C-0.91933733 4.20877549 -0.46023996 2.10425993 0 0 Z " fill="#C5F1F4" transform="translate(149,130)"/>
<path d="M0 0 C2 3.75 2 3.75 2 6 C1.34 6 0.68 6 0 6 C0 8.64 0 11.28 0 14 C-9.57 14 -19.14 14 -29 14 C-29 13.67 -29 13.34 -29 13 C-20.09 13 -11.18 13 -2 13 C-1.67 10.03 -1.34 7.06 -1 4 C-0.67 2.68 -0.34 1.36 0 0 Z " fill="#FEE497" transform="translate(139,100)"/>
<path d="M0 0 C1.26199941 3.63639952 0.75413065 6.34530115 0.00390625 10.078125 C-0.33930664 11.81835938 -0.33930664 11.81835938 -0.68945312 13.59375 C-0.93630859 14.8003125 -1.18316406 16.006875 -1.4375 17.25 C-1.68048828 18.47203125 -1.92347656 19.6940625 -2.17382812 20.953125 C-2.7749192 23.97036646 -3.3839178 26.98579011 -4 30 C-4.33 30 -4.66 30 -5 30 C-5.02687279 28.18757948 -5.04633715 26.37504767 -5.0625 24.5625 C-5.07410156 23.55316406 -5.08570312 22.54382813 -5.09765625 21.50390625 C-5 19 -5 19 -4 18 C-3.76807135 16.48530552 -3.58784762 14.96245438 -3.4375 13.4375 C-3.35371094 12.61121094 -3.26992187 11.78492187 -3.18359375 10.93359375 C-3.12300781 10.29550781 -3.06242187 9.65742187 -3 9 C-2.34 9 -1.68 9 -1 9 C-1.020625 7.700625 -1.04125 6.40125 -1.0625 5.0625 C-1.08399454 3.70834367 -1.07148199 2.35243917 -1 1 C-0.67 0.67 -0.34 0.34 0 0 Z " fill="#FEF8D1" transform="translate(92,108)"/>
<path d="M0 0 C0.99 0 1.98 0 3 0 C2.7525 1.216875 2.505 2.43375 2.25 3.6875 C1.77449455 7.25696088 1.86144326 7.78546053 3.9375 11 C4.9584375 11.99 4.9584375 11.99 6 13 C4.02 13.66 2.04 14.32 0 15 C-1 14 -1 14 -1.1328125 11.6015625 C-1.13023438 10.61929688 -1.12765625 9.63703125 -1.125 8.625 C-1.12757812 7.64789063 -1.13015625 6.67078125 -1.1328125 5.6640625 C-1 3 -1 3 0 0 Z " fill="#59C7F2" transform="translate(46,132)"/>
<path d="M0 0 C1.44324052 2.88648105 0.62971172 4.73852158 0.00390625 7.8828125 C-0.22490234 9.04941406 -0.45371094 10.21601563 -0.68945312 11.41796875 C-0.93630859 12.64128906 -1.18316406 13.86460937 -1.4375 15.125 C-1.68048828 16.35605469 -1.92347656 17.58710938 -2.17382812 18.85546875 C-2.77661785 21.90487561 -3.38559221 24.95291643 -4 28 C-4.33 28 -4.66 28 -5 28 C-5.02687279 26.18757948 -5.04633715 24.37504767 -5.0625 22.5625 C-5.07410156 21.55316406 -5.08570313 20.54382813 -5.09765625 19.50390625 C-5 17 -5 17 -4 16 C-3.84141197 14.44055103 -3.72321421 12.8769121 -3.625 11.3125 C-3.24294624 6.94706604 -2.29889164 3.79816879 0 0 Z " fill="#C6F4ED" transform="translate(196,126)"/>
<path d="M0 0 C3.44868587 4.08733141 6.23793154 8.43805907 9 13 C5.63983107 11.87994369 4.30935087 10.62788203 2 8 C2 7.34 2 6.68 2 6 C1.34 6 0.68 6 0 6 C-0.33 7.32 -0.66 8.64 -1 10 C-2.32 8.35 -3.64 6.7 -5 5 C-3.66666667 5 -2.33333333 5 -1 5 C-0.67 3.35 -0.34 1.7 0 0 Z " fill="#279F9D" transform="translate(164,140)"/>
<path d="M0 0 C0.33 0 0.66 0 1 0 C0.91874075 3.23016726 0.80593395 6.45849888 0.6875 9.6875 C0.66494141 10.59951172 0.64238281 11.51152344 0.61914062 12.45117188 C0.42053527 17.41630574 0.18722674 20.94119919 -3 25 C-4.07138687 21.70239806 -3.90279404 19.39570374 -3.22265625 16.015625 C-2.94711914 14.61376953 -2.94711914 14.61376953 -2.66601562 13.18359375 C-2.46685547 12.21550781 -2.26769531 11.24742188 -2.0625 10.25 C-1.86720703 9.26644531 -1.67191406 8.28289062 -1.47070312 7.26953125 C-0.98809442 4.84471679 -0.49761141 2.42177227 0 0 Z " fill="#C9F4ED" transform="translate(208,101)"/>
<path d="M0 0 C0.66 0 1.32 0 2 0 C1.71758359 1.46015291 1.42373386 2.91809793 1.125 4.375 C0.96257813 5.18710938 0.80015625 5.99921875 0.6328125 6.8359375 C0 9 0 9 -2 11 C-2.99 10.67 -3.98 10.34 -5 10 C-5.66 10.66 -6.32 11.32 -7 12 C-7.33 11.01 -7.66 10.02 -8 9 C-6.576875 7.88625 -6.576875 7.88625 -5.125 6.75 C-2.67467599 4.72154781 -1.12674637 3.0422152 0 0 Z " fill="#5DC7EB" transform="translate(50,103)"/>
<path d="M0 0 C2.97 0 5.94 0 9 0 C8.01 1.485 8.01 1.485 7 3 C7.66 3.33 8.32 3.66 9 4 C9 5.65 9 7.3 9 9 C8.67 7.68 8.34 6.36 8 5 C5.36 5 2.72 5 0 5 C0 3.35 0 1.7 0 0 Z " fill="#3EAFDE" transform="translate(72,87)"/>
<path d="M0 0 C1.11375 0.4640625 1.11375 0.4640625 2.25 0.9375 C4.50692176 1.8094925 6.6450153 2.47667007 9 3 C9 3.66 9 4.32 9 5 C8.34 5 7.68 5 7 5 C7 6.98 7 8.96 7 11 C6.34 11 5.68 11 5 11 C2.55954927 7.54269479 1.21934486 4.03321763 0 0 Z " fill="#40A561" transform="translate(169,125)"/>
<path d="M0 0 C2.0625 0.4375 2.0625 0.4375 4 1 C2.68 1.33 1.36 1.66 0 2 C-0.0825 2.598125 -0.165 3.19625 -0.25 3.8125 C-1.21332412 6.62219534 -2.63379711 7.27912517 -5 9 C-6.2516467 11.08334635 -6.2516467 11.08334635 -7 13 C-7.99 12.67 -8.98 12.34 -10 12 C-8.52149287 10.18696196 -7.04217625 8.37458402 -5.5625 6.5625 C-4.32693359 5.04849609 -4.32693359 5.04849609 -3.06640625 3.50390625 C-1 1 -1 1 0 0 Z " fill="#DAF7FD" transform="translate(49,147)"/>
<path d="M0 0 C0.66 0 1.32 0 2 0 C2 0.66 2 1.32 2 2 C2.99 2.33 3.98 2.66 5 3 C4.125 7.875 4.125 7.875 3 9 C2.67 9.99 2.34 10.98 2 12 C-0.18975773 8.71536341 -0.99806563 5.79303725 -2 2 C-1.34 1.34 -0.68 0.68 0 0 Z " fill="#5EA556" transform="translate(168,118)"/>
<path d="M0 0 C2.67357367 1.78238245 3.91293957 2.92504971 5.75 5.4375 C6.19859375 6.03433594 6.6471875 6.63117188 7.109375 7.24609375 C7.40328125 7.82488281 7.6971875 8.40367187 8 9 C7.67 9.99 7.34 10.98 7 12 C5.66666667 10.66666667 4.33333333 9.33333333 3 8 C2.0925 7.13375 1.185 6.2675 0.25 5.375 C-2 3 -2 3 -2 1 C-1.34 0.67 -0.68 0.34 0 0 Z " fill="#059DA6" transform="translate(155,131)"/>
<path d="M0 0 C4 4.5 4 4.5 4 9 C3.67 8.34 3.34 7.68 3 7 C2.01 7 1.02 7 0 7 C-0.33 7.66 -0.66 8.32 -1 9 C-0.01 9 0.98 9 2 9 C1.34 10.32 0.68 11.64 0 13 C-3 8.25 -3 8.25 -3 6 C-2.34 5.67 -1.68 5.34 -1 5 C-0.34444881 2.47266765 -0.34444881 2.47266765 0 0 Z " fill="#B1AD43" transform="translate(152,90)"/>
<path d="M0 0 C1.32 0 2.64 0 4 0 C4.10853491 1.74861792 4.18583428 3.49919241 4.25 5.25 C4.29640625 6.22453125 4.3428125 7.1990625 4.390625 8.203125 C3.90282884 11.69574548 2.66676828 12.79519158 0 15 C0.08378906 14.08476563 0.16757813 13.16953125 0.25390625 12.2265625 C0.35574219 11.03804687 0.45757812 9.84953125 0.5625 8.625 C0.66691406 7.44164063 0.77132812 6.25828125 0.87890625 5.0390625 C1.24153596 2.08101369 1.24153596 2.08101369 0 0 Z " fill="#D9F8F4" transform="translate(209,85)"/>
<path d="M0 0 C0.99 0.33 1.98 0.66 3 1 C0.36 4.63 -2.28 8.26 -5 12 C-5.66 11.01 -6.32 10.02 -7 9 C-6.67 8.34 -6.34 7.68 -6 7 C-5.34 7.33 -4.68 7.66 -4 8 C-4.0825 7.236875 -4.165 6.47375 -4.25 5.6875 C-4 3 -4 3 -2.1875 1.125 C-1.465625 0.75375 -0.74375 0.3825 0 0 Z " fill="#6EC6E7" transform="translate(61,92)"/>
<path d="M0 0 C0.33 0 0.66 0 1 0 C1.26618595 6.95041086 0.6120509 13.23514355 -1 20 C-1.66 20 -2.32 20 -3 20 C-2.51358785 13.15182898 -1.64006048 6.66957927 0 0 Z " fill="#E9AF3A" transform="translate(90,124)"/>
<path d="M0 0 C2.52588702 2.36292656 3.88820837 3.66462511 5 7 C4.34 7 3.68 7 3 7 C3 6.34 3 5.68 3 5 C1.33378575 6.1645201 1.33378575 6.1645201 0 8 C0.23043864 10.65466049 0.23043864 10.65466049 1 13 C-1.25245881 10.31158141 -2.88213958 8.35358125 -4 5 C-2.68 5 -1.36 5 0 5 C0 3.35 0 1.7 0 0 Z " fill="#76AB65" transform="translate(167,113)"/>
<path d="M0 0 C0.33 0.66 0.66 1.32 1 2 C3.58605332 2.4683265 3.58605332 2.4683265 6.5625 2.625 C8.08037109 2.73714844 8.08037109 2.73714844 9.62890625 2.8515625 C10.80259766 2.92503906 10.80259766 2.92503906 12 3 C11.67 3.66 11.34 4.32 11 5 C6.71 5 2.42 5 -2 5 C-1 1 -1 1 0 0 Z " fill="#D4FAFD" transform="translate(15,160)"/>
<path d="M0 0 C1.4783226 2.95664519 1.06032783 5.74229737 1 9 C-1.1519437 5.77208445 -1.20086443 4.71599191 -1 1 C-1.99 1 -2.98 1 -4 1 C-4 1.66 -4 2.32 -4 3 C-6.64 2.34 -9.28 1.68 -12 1 C-12 0.67 -12 0.34 -12 0 C-3.05084746 -1.34237288 -3.05084746 -1.34237288 0 0 Z " fill="#5DB7D9" transform="translate(63,131)"/>
<path d="M0 0 C1.4540625 0.0309375 1.4540625 0.0309375 2.9375 0.0625 C2.9375 1.3825 2.9375 2.7025 2.9375 4.0625 C0.6275 4.0625 -1.6825 4.0625 -4.0625 4.0625 C-4.0625 0.08290816 -4.0625 0.08290816 0 0 Z " fill="#4ABDEC" transform="translate(69.0625,86.9375)"/>
<path d="M0 0 C0.33 0 0.66 0 1 0 C0.45136137 6.7857936 -0.54267938 13.35009036 -2 20 C-2.33 20 -2.66 20 -3 20 C-3.3689719 12.68889006 -2.81552726 6.78743178 0 0 Z " fill="#C5EFF9" transform="translate(72,129)"/>
<path d="M0 0 C4.29 0 8.58 0 13 0 C12.67 2.64 12.34 5.28 12 8 C11.67 8 11.34 8 11 8 C10.67 6.02 10.34 4.04 10 2 C7.03 1.67 4.06 1.34 1 1 C0.67 1.99 0.34 2.98 0 4 C0 2.68 0 1.36 0 0 Z " fill="#D2FBF4" transform="translate(190,93)"/>
<path d="M0 0 C1.41778293 2.83556587 0.86257622 4.9908706 0.5625 8.125 C0.46066406 9.22070312 0.35882813 10.31640625 0.25390625 11.4453125 C0.17011719 12.28835937 0.08632812 13.13140625 0 14 C-0.99 14 -1.98 14 -3 14 C-2.48594831 9.03083364 -1.76615118 4.70973649 0 0 Z " fill="#2597AE" transform="translate(139,150)"/>
<path d="M0 0 C0.99 0.33 1.98 0.66 3 1 C2.67 2.65 2.34 4.3 2 6 C1.01 6 0.02 6 -1 6 C-1 6.66 -1 7.32 -1 8 C-1.66 8 -2.32 8 -3 8 C-2.45276317 4.62537285 -1.9451 2.91765 0 0 Z " fill="#57C9F2" transform="translate(20,144)"/>
<path d="M0 0 C0.33 0 0.66 0 1 0 C0.85764543 1.72945653 0.71095618 3.45855654 0.5625 5.1875 C0.48128906 6.15042969 0.40007812 7.11335938 0.31640625 8.10546875 C0.02333849 10.78649602 -0.42703754 13.3662986 -1 16 C-1.33 16 -1.66 16 -2 16 C-2.05423638 14.08364783 -2.09289963 12.16685075 -2.125 10.25 C-2.14820313 9.18265625 -2.17140625 8.1153125 -2.1953125 7.015625 C-2.00487687 4.07529894 -1.52670104 2.47638122 0 0 Z " fill="#46A87A" transform="translate(189,93)"/>
<path d="M0 0 C0.99 0 1.98 0 3 0 C3.36923077 7.50769231 3.36923077 7.50769231 1.5 10 C1.005 10.33 0.51 10.66 0 11 C-1.35015859 6.94952424 -0.62084998 4.2079832 0 0 Z " fill="#20A5E2" transform="translate(82,88)"/>
<path d="M0 0 C0.66 0 1.32 0 2 0 C2 2.97 2 5.94 2 9 C0.68 8.34 -0.64 7.68 -2 7 C-1.125 1.125 -1.125 1.125 0 0 Z " fill="#2AA76A" transform="translate(179,130)"/>
<path d="M0 0 C0.33 1.32 0.66 2.64 1 4 C0.01 4.33 -0.98 4.66 -2 5 C-2 6.65 -2 8.3 -2 10 C-3.32 9.67 -4.64 9.34 -6 9 C-6 8.34 -6 7.68 -6 7 C-5.34 7 -4.68 7 -4 7 C-3.71125 6.21625 -3.4225 5.4325 -3.125 4.625 C-2 2 -2 2 0 0 Z " fill="#58C9F1" transform="translate(59,90)"/>
<path d="M0 0 C0.99 0 1.98 0 3 0 C3 1.65 3 3.3 3 5 C1.02 5.99 1.02 5.99 -1 7 C-1.66 5.35 -2.32 3.7 -3 2 C-2.01 2 -1.02 2 0 2 C0 1.34 0 0.68 0 0 Z " fill="#BAA726" transform="translate(149,90)"/>
<path d="M0 0 C0.33 0 0.66 0 1 0 C1.07654536 4.51617599 1.10228696 8.59085217 0 13 C-1.98 13 -3.96 13 -6 13 C-5.38125 12.525625 -4.7625 12.05125 -4.125 11.5625 C-1.1889379 8.02195453 -0.72455289 4.46172044 0 0 Z " fill="#C9F0F3" transform="translate(143,160)"/>
<path d="M0 0 C0.66 0.33 1.32 0.66 2 1 C1.64950425 4.24208567 1.43778819 5.61527704 -1.0625 7.8125 C-1.701875 8.204375 -2.34125 8.59625 -3 9 C-3.26218749 5.85375007 -3.24754367 4.38162983 -1.5 1.6875 C-1.005 1.130625 -0.51 0.57375 0 0 Z " fill="#6AC5E3" transform="translate(29,135)"/>
<path d="M0 0 C2.38825352 3.64429796 1.94295451 6.0693436 1.125 10.25 C0.92132813 11.32765625 0.71765625 12.4053125 0.5078125 13.515625 C0.34023437 14.33546875 0.17265625 15.1553125 0 16 C-2 14 -2 14 -2.01171875 12.01171875 C-1.90472656 11.24472656 -1.79773438 10.47773437 -1.6875 9.6875 C-1.57921875 8.88828125 -1.4709375 8.0890625 -1.359375 7.265625 C-0.9725851 4.82716693 -0.54388973 2.40865454 0 0 Z " fill="#56AED5" transform="translate(79,96)"/>
<path d="M0 0 C0.99 0 1.98 0 3 0 C1.68775452 3.93673644 0.08089673 6.22719294 -3 9 C-2.25 2.25 -2.25 2.25 0 0 Z " fill="#DBF9FC" transform="translate(30,123)"/>
<path d="M0 0 C2 3.75 2 3.75 2 6 C1.34 6 0.68 6 0 6 C0 8.64 0 11.28 0 14 C-0.66 14 -1.32 14 -2 14 C-1.85795259 12.41632253 -1.71119847 10.83306682 -1.5625 9.25 C-1.48128906 8.36828125 -1.40007812 7.4865625 -1.31640625 6.578125 C-1.03761535 4.30649548 -0.61209423 2.20148177 0 0 Z " fill="#FDEFC1" transform="translate(139,100)"/>
<path d="M0 0 C1.32 0 2.64 0 4 0 C3.67 1.65 3.34 3.3 3 5 C1.02 5 -0.96 5 -3 5 C-1.75 2.5 -1.75 2.5 0 0 Z " fill="#0398B1" transform="translate(136,166)"/>
<path d="M0 0 C0.33 0 0.66 0 1 0 C1 1.65 1 3.3 1 5 C0.34 5 -0.32 5 -1 5 C-1.66 6.32 -2.32 7.64 -3 9 C-3.99 8.67 -4.98 8.34 -6 8 C-5.02471263 6.66382648 -4.04466681 5.3311249 -3.0625 4 C-2.24458984 2.88625 -2.24458984 2.88625 -1.41015625 1.75 C-0.94480469 1.1725 -0.47945312 0.595 0 0 Z " fill="#DAF6FB" transform="translate(22,150)"/>
<path d="M0 0 C0.33 0.99 0.66 1.98 1 3 C-0.14453125 5.04296875 -0.14453125 5.04296875 -1.8125 7.1875 C-2.62654297 8.26064453 -2.62654297 8.26064453 -3.45703125 9.35546875 C-3.96621094 9.89816406 -4.47539062 10.44085938 -5 11 C-5.66 11 -6.32 11 -7 11 C-5.22054913 6.95579349 -2.60470327 3.53921513 0 0 Z " fill="#7BCAE2" transform="translate(13,151)"/>
<path d="M0 0 C0.33 0.66 0.66 1.32 1 2 C-0.70135776 5.23257974 -2.76039553 8.12050853 -5 11 C-5.66 10.67 -6.32 10.34 -7 10 C-6.02223933 8.51990357 -5.0427506 7.04094856 -4.0625 5.5625 C-3.51722656 4.73878906 -2.97195312 3.91507812 -2.41015625 3.06640625 C-1 1 -1 1 0 0 Z " fill="#73C7E2" transform="translate(37,118)"/>
<path d="M0 0 C0.5534764 2.07553648 1 3.84365964 1 6 C-0.1875 7.6875 -0.1875 7.6875 -2 9 C-4.6875 8.6875 -4.6875 8.6875 -7 8 C-6.21625 7.4225 -5.4325 6.845 -4.625 6.25 C-2.19952756 4.17102363 -1.14305583 2.90959667 0 0 Z " fill="#D6F3FA" transform="translate(63,140)"/>
<path d="M0 0 C2.1875 0.3125 2.1875 0.3125 4 1 C3.01 1.495 3.01 1.495 2 2 C1.59270772 4.32156597 1.25561323 6.6568787 1 9 C0.67 9 0.34 9 0 9 C0 7.35 0 5.7 0 4 C-0.99 3.67 -1.98 3.34 -3 3 C-1.75 1.4375 -1.75 1.4375 0 0 Z " fill="#2DA8DE" transform="translate(81,87)"/>
<path d="M0 0 C0.66 0 1.32 0 2 0 C0.6062718 4.43458973 -1.60582235 6.87378374 -5 10 C-4.67 8.35 -4.34 6.7 -4 5 C-3.34 5 -2.68 5 -2 5 C-1.7834375 4.0409375 -1.7834375 4.0409375 -1.5625 3.0625 C-1 1 -1 1 0 0 Z " fill="#DFF8FE" transform="translate(23,134)"/>
<path d="M0 0 C1.29922995 2.5984599 0.81286289 3.75961451 0.1875 6.5625 C0.01605469 7.36816406 -0.15539062 8.17382812 -0.33203125 9.00390625 C-1 11 -1 11 -3 12 C-3.34833144 7.12335991 -2.41685712 4.22949995 0 0 Z " fill="#D3F8F3" transform="translate(196,126)"/>
<path d="M0 0 C2.66735273 2.48952921 4.55746343 4.63408134 6 8 C4.68 8 3.36 8 2 8 C1.34 5.36 0.68 2.72 0 0 Z " fill="#D4F5F4" transform="translate(162,150)"/>
<path d="M0 0 C0.66 0.33 1.32 0.66 2 1 C2 2.98 2 4.96 2 7 C-1 7 -1 7 -3 6 C-2.67 5.01 -2.34 4.02 -2 3 C-1.34 3.33 -0.68 3.66 0 4 C0 2.68 0 1.36 0 0 Z " fill="#0A989B" transform="translate(162,138)"/>
<path d="M0 0 C0 0.99 0 1.98 0 3 C-0.66 3.66 -1.32 4.32 -2 5 C-5.125 4.625 -5.125 4.625 -8 4 C-7.67 3.34 -7.34 2.68 -7 2 C-5.34385343 1.61781233 -3.67542976 1.28604898 -2 1 C-1.34 0.67 -0.68 0.34 0 0 Z " fill="#E2FAF1" transform="translate(184,137)"/>
<path d="M0 0 C0.99 0 1.98 0 3 0 C3.33 2.64 3.66 5.28 4 8 C3.34 8 2.68 8 2 8 C2 6.68 2 5.36 2 4 C1.34 4 0.68 4 0 4 C0 2.68 0 1.36 0 0 Z " fill="#40B6E5" transform="translate(59,132)"/>
<path d="M0 0 C1.65 1.32 3.3 2.64 5 4 C4.67 4.99 4.34 5.98 4 7 C3.01 7 2.02 7 1 7 C-0.0625 4.625 -0.0625 4.625 -1 2 C-0.67 1.34 -0.34 0.68 0 0 Z " fill="#56AB6B" transform="translate(173,122)"/>
<path d="M0 0 C2.4375 0.6875 2.4375 0.6875 5 2 C5.8125 4.625 5.8125 4.625 6 7 C5.01 7.33 4.02 7.66 3 8 C2.01 5.36 1.02 2.72 0 0 Z " fill="#4CA863" transform="translate(169,125)"/>
<path d="M0 0 C0.33 0.66 0.66 1.32 1 2 C-1.16798732 7.4770206 -1.16798732 7.4770206 -4.1875 9.375 C-4.785625 9.58125 -5.38375 9.7875 -6 10 C-4.34832443 6.4213696 -2.21713508 3.25179812 0 0 Z " fill="#D5F7FD" transform="translate(55,104)"/>
<path d="M0 0 C1.875 0.5625 1.875 0.5625 4 2 C5.25 5.625 5.25 5.625 6 9 C2.91910327 6.22719294 1.31224548 3.93673644 0 0 Z " fill="#DDFAF9" transform="translate(169,146)"/>
<path d="M0 0 C0.66 0.33 1.32 0.66 2 1 C2 1.99 2 2.98 2 4 C-0.31 5.32 -2.62 6.64 -5 8 C-3.62845496 5.04590299 -2.01136276 2.55991624 0 0 Z " fill="#6FC7E0" transform="translate(47,104)"/>
<path d="M0 0 C2.31 0 4.62 0 7 0 C7 0.66 7 1.32 7 2 C5.02 2.33 3.04 2.66 1 3 C0.67 2.01 0.34 1.02 0 0 Z " fill="#5AC7F9" transform="translate(24,166)"/>
<path d="M0 0 C0.99 0 1.98 0 3 0 C3 1.65 3 3.3 3 5 C1.68 5 0.36 5 -1 5 C-0.67 3.35 -0.34 1.7 0 0 Z " fill="#6FA546" transform="translate(164,113)"/>
</svg>
